<?xml version="1.0" encoding="utf-8"?>
<!-- Generator: Adobe Illustrator 23.0.1, SVG Export Plug-In . SVG Version: 6.00 Build 0)  -->
<svg version="1.1" id="Layer_1" xmlns="http://www.w3.org/2000/svg" xmlns:xlink="http://www.w3.org/1999/xlink" x="0px" y="0px"
	 viewBox="0 0 589 202.7" style="enable-background:new 0 0 589 202.7;" xml:space="preserve">
<style type="text/css">
	.st0{fill:#96DAEA;}
	.st1{fill:#45A041;}
	.st2{enable-background:new    ;}
	.st3{fill:#939598;}
	.st4{fill:none;stroke:#939598;stroke-width:0.75;stroke-miterlimit:10;}
</style>
<g>
	<circle class="st0" cx="109.9" cy="103.3" r="90.5"/>
	<g>
		<path class="st1" d="M55.7,104c-0.5,0-0.9,0-1.4,0C54.5,105.4,55,105.4,55.7,104z"/>
		<path class="st1" d="M54.8,115.7c0.2,0,0.5,0,0.7-0.2c0.5-0.2,0.5-0.5,0.5-0.7c-0.7,0-1.2,0-1.9,0C54.5,115,54.8,115.2,54.8,115.7
			z"/>
		<path class="st1" d="M58.3,111.7c-1.2-0.2-2.3-0.7-3.3-1.4c-0.9-0.5-1.9-0.9-2.8-1.6c-2.1,0-3.5,0.5-4.2,1.6c1.6-0.5,3-0.5,4.2,0
			c0.5,0.2,0.9,0.7,1.6,1.4c0.7,0.7,1.2,0.9,1.4,0.9c0.9,0,2.1,0,3,0C58.3,112.9,58.3,112.2,58.3,111.7z"/>
		<path class="st1" d="M99.4,138.2c0.2,0.2,0.5,0.7,0.5,0.9c0.2,0,0.7,0,0.9,0c-0.2-0.2-0.5-0.7-0.5-0.9
			C100.1,138.2,99.6,138.2,99.4,138.2z"/>
		<path class="st1" d="M63.9,114.5c0-1.2-0.9-1.9-2.8-1.9c-2.1,0-3,0.7-3,1.9c0.7,0.5,1.6,0.5,2.8,0.5
			C60.8,114.8,61.8,114.5,63.9,114.5z"/>
		<path class="st1" d="M55,108.7c0-0.7,0-1.6,0-2.3c-0.2,0.2-0.2,0.2-0.5,0.5C54.5,107.5,54.8,108,55,108.7z"/>
		<path class="st1" d="M55.7,106.4c0.7,0.9,1.4,2.1,2.1,3c0-0.7-0.2-1.2-0.2-1.9C57.3,107.5,56.6,107.1,55.7,106.4z"/>
		<path class="st1" d="M64.6,115c0.9-0.2,1.6-0.2,2.6-0.5c-0.2-0.2-0.5-0.5-0.7-0.7C66,113.8,65.3,114.3,64.6,115z"/>
		<path class="st1" d="M80.9,19.7c0.2,0,0.5-0.2,0.7-0.2c0,0.2,0,0.5,0,0.7c-0.5,0.5-0.9,0.9-1.4,1.2c0,0.5,0.2,0.9,0.7,0.7
			s0.9-0.2,1.4-0.7c0.9-1.2,1.2-0.5,0.5-1.9c-0.2,0-0.7,0-0.9,0c0.2,0,0.2-1.4,0-2.1c-0.9,0.2-1.9,0.7-2.8,0.9
			c0.2,0.7-0.2,1.9-0.7,3.5C79.5,21.8,80.5,21.1,80.9,19.7z"/>
		<path class="st1" d="M134.2,28.3c0.2,0,0.7,0,0.9,0c0.5,0,0.2,0.2-0.2,1.4c0.2,0.2,0.7,0.2,1.6,0.7c0.5-0.9,0.7-2.1,1.4-3
			c0.7,1.6,1.4,1.9,2.3,0.9c-0.5-0.7-1.2-1.4-1.6-2.3c0-0.2-0.2-0.7-0.2-0.9c0.5-0.5,1.4-0.9,2.6-1.9c0-0.7-0.2-1.2-0.9-1.6
			c-0.5,0-1.2,0-1.6-0.2c-0.2,0.2-0.7,0.7-0.9,0.9c-0.2,0-0.5,0-0.5,0c-0.2,0-0.2,0.5-0.5,0.9c-0.2,0.5-0.5,1.2-0.7,1.2
			c-0.7,0-1.4,0-2.1,0c-0.5,1.4-0.5,1.2,0,2.1C134,27.1,134.2,28.3,134.2,28.3z"/>
		<path class="st1" d="M79.1,25.5c-1.2,1.9-1.9,3-1.6,3.5c1.2,1.4,2.6,2.1,4,2.1c1.4,0,2.1-0.7,2.6-2.3c0.2-0.7,0-1.2-0.9-1.2
			c-0.9,0-1.6-0.2-2.1-0.2s-0.5-0.7,0-2.1C80.7,25,80.2,25,79.1,25.5z"/>
		<path class="st1" d="M93.1,136.3c-0.5-0.2-1.2-0.5-2.3-0.5c-1.2,0-1.9,0-2.3-0.2c-0.9-0.9-2.8-1.6-5.8-2.8
			c-0.2-0.7-0.2-1.4-0.5-2.3c-1.9-2.1-3.3-3.3-4-3.3c-1.2,0-2.3-0.2-3-0.7s-1.9-1.4-3.3-3c-0.2-0.2-0.2-0.7-0.2-1.2
			c0-0.5-0.2-0.7-0.7-0.9c0,0.2,0,0.7-0.2,1.2c-0.7,0-1.9,0.5-3,0.5c-0.9,0-1.9,0-2.8,0c-0.2-1.4-0.5-0.9-0.5-1.2
			c-2.1-0.5-3.5-0.9-4-1.4c-0.5,1.2-1.6,2.6-3.5,3.7c-0.2,0-0.9-0.2-1.9-0.5c-0.7-0.2-1.9,0-3.3,0.5c-1.2-0.5-1.9-1.4-1.9-2.3
			c0-0.9,0-2.3,0-4c-0.2-0.2-0.5-0.7-0.7-0.7c-1.2,0-2.1,0-3.3,0c-1.4,0-1.6-1.2-0.9-2.3c0.7-0.5,1.2-0.9,0.9-2.1
			c0.2-1.2,0.2-1.9,0-2.1c-0.7,0.2-1.2,0.2-1.4,0.5c-0.2,0-0.7,0.2-0.9,0.2c-0.5,0-0.7,0.5-0.9,1.4c-0.2,0.9-0.5,1.4-0.7,1.6
			c-0.9,0.5-1.9,0.2-3,0c-1.2-0.2-1.9-0.7-2.1-1.4c-0.2-0.7-0.5-1.2-0.9-1.9c0-0.5,0-0.9,0-1.6c0-1.2,0.2-3.3,1.2-5.8
			c0.7-1.4,1.9-2.1,3.5-2.1c0.7,0,2.1,0.2,4,0.5c0-1.4,0.9-2.1,3-2.1c0.5,0.5,0.9,0.9,1.2,0.9c0.2,0.2,0.7,0.2,1.2,0.5
			c0.5,1.2,0.7,2.3,1.2,3.3c0.5,0.7,0.9,1.2,1.4,1.9c0.5,0.2,0.7,0.2,0.9-0.2c0-0.2,0-0.5,0-0.9c0-1.4-0.5-2.8-1.4-4.4
			c-0.2-0.5-0.2-1.2,0.5-2.1s1.4-1.6,2.1-2.1c0.7-0.5,1.9-1.2,3-2.1C57.8,94,58,93,58,91.9c0.5-0.9,1.2-2.1,1.9-3.3
			c0.7-1.2,1.4-2.3,2.3-2.3c0.5,0,1.2,0,1.6,0c0.2,0,0.5-1.6,0.9-2.3s0.9-1.4,1.6-1.9c1.6,0,2.6,0.2,3,0.9c0.2,0.2,0.9-0.2,1.6-0.9
			c1.2-0.2,2.3-0.7,3.3-0.9c0.2-0.2,0.5-0.7,0.2-1.9c-0.7-0.2-1.4-0.7-1.9-0.9c-0.7-0.2-0.9-0.7-1.2-0.9c0.2-0.2,0.7-0.5,0.9-0.7
			c-0.2-0.2-0.5-0.5-0.7-0.7c-0.7-0.2-1.2-0.5-1.4-0.7c0.5-0.9,1.2-0.9,2.3-0.7c1.2,0.5,1.9,0.7,2.1,0.7c1.6-0.9,3.3-1.6,4.9-2.6
			c0,0.2,0,0.2,0.2,0.5c0,0.2,0,0.2,0,0.5c-1.2,1.4-2.6,3-3.7,4.2c0.5,0.2,0.9,0.2,1.6,0.2s1.2,0.2,1.4,0.7c0,0.2-0.2,0.5-0.2,0.7
			c0.7-0.2,1.4-0.5,1.6-0.2c0,0.2,0,0.5,0.2,0.7c0-0.5,0.5-0.9,1.2-1.2c0-0.9,0-2.1,0-3c-0.9,0-1.4-0.2-1.9-0.5c0-1.2,0-2.8,0.2-5.1
			c-0.7-1.2-0.7-2.1-0.2-3c-1.6-0.2-2.3-1.9-2.1-4.4c0.2-2.6,0.2-4.2,0-4.7c-0.2,0-0.7,0.5-0.9,1.6c-1.2,1.6-2.3,2.1-3.5,1.6
			c-0.7-0.5-0.2-1.9,1.4-4c-0.2-0.2-0.5-0.7-0.7-0.9c-0.2,0-0.7,0.2-0.9,0.2c-0.2-0.2-0.5-0.7-0.7-1.9c-0.7-0.2-1.4-0.5-2.1-0.7
			c-0.7-0.2-1.2-0.2-1.4,0.5c-0.5,1.4-0.9,2.8-1.2,4.2c-0.5,0.2-0.9,0.7-1.9,1.4c0,0.5-0.2,0.7-0.2,1.2c1.2,0.7,1.2,1.4,0.7,2.6
			c-1.4,1.2-2.8,2.3-4,3.3c0,0.2-0.2,1.2-0.7,2.3c-0.5,1.2-0.7,1.9-1.2,1.9c-0.7,0-0.9-0.7-0.7-2.1c0.2-1.9,0.5-2.8,0.2-3
			c-1.2-1.2-2.1-2.6-3.3-3.7c-0.5-0.5-1.2-0.9-1.9-1.2c0-0.5,0.2-0.7,0.2-1.2s0-1.2,0-1.6c0.7-1.2,1.4-2.3,1.9-3.5
			c0.9-0.9,2.3-1.9,4-2.8c0.2-0.5,0.5-0.7,0.7-1.2c0.2-0.2,0.9-0.7,2.3-1.9c1.2-0.9,2.8-1.6,2.8-1.9c0,0.2,0,0.5,0,0.7
			c-1.4,1.4-1.6,4.4-1.9,4.4c0.2,0,0.5,0,0.9,0c0.7,0,1.2-1.2,1.9-0.7c0.7,0.5,1.2,0.2,1.6,0.2c0-0.2-0.2-0.2-0.2-0.5
			c0.2-0.2,0.5-0.5,0.7-0.7c-0.2-0.2-0.7-0.5-1.6-1.2c0-0.2,0-0.2-0.5-0.9c-0.2-0.5-0.2-0.7,0.2-0.7c0.9,0,1.6,0,2.8,0
			c0.5,0,0.9-2.3,1.6-4.4c0.2-0.2,0.7-1.4,0.9-1.6c0.2-0.7,0.5-1.2,0.5-1.9c0-0.2,0.2-0.2,0.5-0.5c0.2-0.2,0.7-0.2,0.9,0
			c0,0.2,0.2,0.2,0.2,0.5c0.5,0.2,0.9,0.2,1.4,0c-0.2,0.2-0.2,0.5-0.5,0.7c0.2,0.7,0.7,1.6,1.2,2.3c0.5,0.7,0.2,1.6-0.2,2.6
			c-0.7,0.7-1.4,1.2-1.9,1.9c-0.2,0.2-0.7,0.9-1.6,2.1c-0.2-0.2-0.5-0.7-0.7-0.9c-0.9,0.2-1.4,0.2-1.6,0.5c0,0.5-0.2,0.7-0.2,1.2
			c0.5,1.2,1.2,1.2,2.3,0c-0.2,0.7,0.2,1.4,0.9,2.1c0.5,0.2,0.7,0.7,1.2,1.4c0.5,0.7,0.9,1.4,1.2,1.4c0.2-0.2,0.5-0.2,0.5-0.5
			c1.6-0.5,2.3-1.4,2.8-2.6c-0.2-0.5-0.5-1.4-0.9-3c0.5,0,0.7,0,1.2-0.2c0.2,0,0.2,0.5,0.5,1.2c0.2,0.7,0.5,0.9,0.9,0.7
			c0.7-0.7,1.4-1.4,2.6-2.8c-0.2,0-0.5,0-0.9,0s-0.5-2.3,0-3c-0.7,0.5-1.2-0.2-1.2-1.6c0.2-0.2,0.7-0.5,0.9-0.7
			c0.5-1.6,0.5-2.8,0-3.7c-0.2,0-0.7,0.2-0.9,0.2c-0.5-0.5-0.5-1.2,0-1.9c-0.7,0-1.4-0.2-1.6-0.9c0.7-2.3,0.7-3.7,0-4.4
			c-0.7-0.7-1.6-0.7-3-0.2c0-0.2,0.2-0.7,0.2-0.9c-0.9-0.5-1.9-0.2-3.3,0.9c-0.5,0.5-1.6,1.4-3,2.6c0,0.2,0,0.5,0,0.7
			s-0.2,0.7,0,1.4c-0.2,0.2-0.5,0.2-0.7,0.5c-0.2,0.5-0.2,0.7-0.5,1.2c0.9-0.2,1.4,0.2,1.6,0.9c-0.2,0.2-0.5,0.5-0.7,0.7
			c-0.2,0.2-0.5,0.5-0.7,0.9c-0.2,0.5-0.7,0.9-1.4,1.4c-0.7,0.7-1.2,0.7-1.4,0.5c0.7-1.2,0.9-2.1,0.7-2.3c0-0.2-0.5-0.2-0.9-0.5
			s-0.5-0.5-0.2-0.9c0.5-0.2,0.7-0.7,1.2-0.9c0.2-0.7,0.7-2.1,1.4-4c0.7-1.4,1.4-2.1,2.1-2.1s1.2-0.2,1.6-0.5
			c0.5-0.2,0.9-0.7,1.4-1.4c-0.9,0-1.9-0.2-3-0.7c-0.2,0-0.2,0-0.5,0c-0.2-0.2-0.2,1.2-0.2-0.2c-0.2,0-0.7,0-0.9,0
			c-2.1,2.8-3,3.3-3.3,4.7c-0.2,0.2-0.7,0.2-0.9,0.5c-0.5,1.6-0.7,2.8-0.9,3c-0.7,0.7-1.6,1.4-3,2.6c-0.2,0.2-0.5,0.7-0.7,0.9
			c-0.2,0.5-0.7,0.9-1.4,1.4c-1.4,0-2.6-0.7-3-2.1c0-0.2,0.5-0.7,1.2-1.2c0.7,0.2,1.4,0.7,2.1,0.9c0.2-0.5,0.5-0.7,0.9-0.7
			c0.2,0,0.7,0,0.9,0c0,0,0-2.3,0-3.3c1.4-1.9,2.8-4.4,4.2-6.5c0.5-0.5,0.5-0.7,0.5-1.2c-0.2-0.2-0.5-0.5-1.2,0
			c-1.2,0.7-2.3,1.6-3.5,2.3c-0.2,0.2-0.7,0-1.2-0.7c0.2-0.2,0.7-0.5,0.9-0.7c-0.7-0.2-1.2-0.5-0.9-0.7c0.2-0.2,0.7-0.7,1.6-1.9
			c-0.5-0.5-0.9-0.7-1.6-0.7c-2.1,1.4-4.2,2.8-6.3,4.4c0.5,0,0.7,0.5,0.9,1.2c-0.7,0.5-0.9,1.4-0.5,2.1c-0.2,0.2-0.5,0.2-0.7,0.5
			c-0.9,0.2-1.4,0.7-1.4,0.9c0,0.7,0,1.4,0.5,2.3c-0.2,0.2-0.5,0.2-0.7,0.5c-1.2,0-1.9-0.7-2.6-2.1c-0.2-0.5-0.5-0.9-0.5-1.4
			C32.1,49.6,20.2,72.2,19,97.7c0,0.5,0.2,0.7,0.2,1.2c0.2,1.6,0.7,2.6,1.4,2.8c-0.2,0-0.5,0.5-0.5,1.6c0.5,0.2,0.9,1.2,1.6,2.6
			c0.7,1.2,1.4,2.1,2.1,2.8c0.2-0.2,0.5-0.2,0.7-0.5c-0.2,0-0.7-0.5-0.9-1.2c-0.2-0.9-0.7-2.1-1.6-3.5c-0.7-1.6-0.9-2.8-0.9-3.5
			c0.9,0.9,1.9,2.8,3.3,5.1c1.2,2.3,2.3,4,3.3,5.1c0.2,0.5,0.5,1.6,0.7,3.3c1.6,1.2,3,2.1,4.4,2.6c1.4,0.5,3.3,0.9,6.1,1.6
			c1.9,0.7,3.5,1.4,5.4,2.1c0.7,0.2,1.4,0.9,2.3,2.3c0.9,1.4,1.9,2.1,2.8,2.3c2.1,1.2,3.3,1.9,4,2.1c0-0.5,0.2-0.9,0.2-1.6
			c1.6,0.9,2.6,2.1,2.8,4c0.2,0.9-0.2,1.9-0.9,3c-0.7,1.2-1.2,1.9-1.4,2.1c0.5,1.4,0.7,2.6,1.2,3.7c-0.5,1.4-0.7,2.3-0.5,2.8
			c0.7,0.7,1.6,1.6,2.8,2.8c0.7,1.4,1.4,2.3,2.3,3.3c0.9,0.9,1.9,1.6,2.6,2.3c0.2,0.2,1.2,0.7,2.8,1.6c1.6,0.9,2.8,2.1,3.5,3.3
			s1.2,2.6,1.6,4.2c0.2,1.6,0.7,3,1.2,4.7c0.5,1.4,0.9,2.8,1.4,3.5c0.5,0.7,0.9,1.4,1.4,2.1c0,0.7,0.2,1.4,0.2,2.1
			c-0.2,0.5-0.2,0.9,0,1.6c0.2,0.9,0.7,1.4,1.4,1.9c0.2,0.7,0.7,1.4,0.9,2.1c0,0.2-0.2,0.5-0.2,0.9c0.5,1.2,0.7,2.1,0.9,2.3
			c0.5,0.2,0.9,0.5,1.2,0.7c0.5,0.2,0.7,0.5,0.7,0.9c0,0.2-0.2,0.2-0.2,0.2c-0.2,0.5,0,1.2,0.2,1.6c0.5,0.2,0.7,0.7,1.2,0.9
			c0.2,0.7,0.7,1.4,0.9,2.1c0.5,0.2,0.9,0.5,1.2,0.7c0.5,1.2,1.4,2.3,2.6,3.3c2.1,0.5,4,1.2,6.1,1.4c0-0.2,0.2-0.2,0.2-0.2
			c-0.5,0-0.7,0-1.2,0c-0.7,0-1.4-0.9-1.9-1.6c-0.5-0.7-1.2-1.4-1.6-2.3c-0.2-1.2-0.5-2.6-0.7-4c-0.5-0.5-1.2-0.7-1.6-1.2
			c-0.2-0.5-0.2-0.9,0-1.6c0.5-0.7,0.2-1.4-0.2-2.1c0,0,0.2,0,0.7-0.2c0.2-0.2,0.2-0.5-0.2-0.9c-0.5-0.2-0.9-0.5-1.6-0.7
			c0-0.2,0-0.5,0-0.9c0.2-0.2,0.7-0.2,1.4,0c-0.5-1.4-0.7-2.1-0.5-2.1c0.5,0,0.9,0,1.4,0c1.2-1.4,1.4-2.1,0.7-3
			c-0.2-0.5-0.5-0.9-0.5-1.4c1.2-0.7,2.1-1.2,2.6-1.9c-0.5-0.9-0.5-1.6-0.5-2.1c0.2,0,0.5-0.2,0.7-0.2c0.2-1.2,0.5-2.6,0.9-4.7
			c-0.2-0.2-0.5-0.5-0.7-0.7c0-1.6,0.5-2.3,1.4-2.3c0.5-0.2,0.9-0.9,1.9-1.6c0.9,0,1.6-0.2,2.6-0.2c0.2-0.7,0.5-3.7,0.7-9.1
			c0-2.3,0.5-4.2,1.4-5.4c0.5-0.7,0.5-1.4,0-2.3C96.6,138.4,95.2,137.5,93.1,136.3z M54.3,79.5c0.5,0,0.7,0.2,1.2,0.2
			c0.2,0.2,0.5,0.2,0.9,0.5c-0.2,0.2-0.5,0.2-0.7,0.5c0,0.5,0,0.9-0.2,1.2c-0.2,0.2-0.7,0.7-0.9,0.9c0-0.5-0.2-0.9-0.2-1.2
			c0-0.2,0-0.7-0.2-0.9c0-0.2,0-0.7,0-0.9C54.1,79.7,54.3,79.7,54.3,79.5z M51,82.5c0,0.7-0.2,1.4-0.2,2.1c-0.5,0.2-0.9,0.7-1.2,0.9
			c0.2-1.9,0.5-2.8,0.9-3.3c0.2-0.2,0.5,0,0.7,0c0.2,0,0.5,0,0.7,0C51.7,82.3,51.5,82.3,51,82.5z M52,82.1
			C52.2,82.1,52.2,82.1,52,82.1c0.2-0.2,0.5,0,0.9,0C52.7,82.1,52.4,82.1,52,82.1z M48.9,77.8c0.2,0,0.7,0,0.9,0
			c0.2-0.2,0.2,0,0.2-0.2c0.2-0.2,0.2,0,0.5,0.2c0.2,0,0.2,0,0.5,0s0.5,0,0.7,0c0.5,0,0.7-0.9,1.2-0.7c0.2,0.5,0.2,0,0.5,0.5
			c-0.5,0.2-0.7,0.7-1.2,0.9c-0.5-0.2-0.7-0.2-1.2-0.5c0,0,0-0.2-0.2-0.2h-0.2h-0.2c-0.2,0-0.5,0.2-0.7,0.5
			c-0.5,0.2-0.7,0.5-0.9,0.5C48.9,78.3,48.9,78.1,48.9,77.8z M44.2,41.6c0.2-0.2,0.7-0.2,0.9-0.5c0,0.2,0.2,0.2,0.2,0.5
			c0.2,0.2,0.5,0.7,0.7,0.9c0,0.2,0.2,0.2,0.2,0.2c0,0.2,0,0.5-0.2,0.7l0,0c-0.5,0-0.9,0-1.2,0c-0.2,0-0.5,0-0.9,0
			c0.2-0.5,0.2-0.9,0.5-1.4C44.2,41.9,44.2,41.9,44.2,41.6z"/>
		<path class="st1" d="M69.7,116.6c0.2,0.5,0.7,0.9,0.9,1.4c0-0.7,0-1.4-0.2-2.1C70.4,115.9,70.2,116.2,69.7,116.6z"/>
		<path class="st1" d="M66.2,26.7c0.5,0.2,2.1,0,4.9-0.7c0.2,0,0.5-0.2,0.9-0.5c0.5-0.2,0.7-0.7,0.7-1.4c0.2,0,0.5-0.2,0.7-0.2
			c0.2,0.2,0.2,0.9,0.2,1.9c0,0.9,0.2,1.4,0.5,1.4c0.5,0.2,0.7,0.5,0.9,0.9c0,0.5,0.2,0.7,0.5,0.9c0.7-0.2,0.9-0.5,0.9-1.2
			S76.3,26.7,76,26c0.2-0.2,0.5-0.7,0.9-1.4c0.5-0.7,0.7-1.2,0.7-1.4s-0.5-0.2-1.2-0.2s-1.2,0-1.2,0c0-0.2,0-0.5,0-0.9
			c-0.5,0.7-1.2,1.2-1.9,1.4c-0.7,0.2-1.2,0.2-1.2-0.2c0.2-0.5,0.5-1.2,0.7-1.6c-0.2-0.2-0.9,0-1.6,0.7c-0.7,0.7-1.2,1.2-1.4,1.2
			c0.2-0.7,0.2-1.2,0-1.4c-1.6,0.7-3,1.6-4.7,2.6C65,25.7,65.5,26.4,66.2,26.7z"/>
		<path class="st1" d="M93.1,188.2c1.2-0.2,1.6-0.5,1.6-0.9c-0.5,0-0.7-0.2-1.2-0.2C92.9,187,92.6,187.5,93.1,188.2z"/>
		<path class="st1" d="M169.5,147.7c-0.5,0-0.7,0-1.2,0c-0.7,1.4-1.2,2.8-1.6,4.2c-1.4,1.2-1.2,2.1,0.2,3.5c0.2,0.5,0.7,0.7,1.4,0.5
			c0.7-0.2,1.2-0.5,1.4-1.2c0.2-0.7,0.7-1.6,1.2-2.8c0.5-1.2,0.7-2.1,0.9-2.6c0.9-1.9,1.4-4,1.6-7c-0.2,0.2-0.9,1.4-1.6,2.6
			C170.9,146.1,170,146.3,169.5,147.7z"/>
		<path class="st1" d="M134.7,85.1c-0.2,0.2-0.5,0.7-0.7,0.9c0,0.9,0.2,1.6,0.5,2.1c0.2,0.2,0.7,0.5,0.9,0.2
			c0.5-0.2,0.7-0.7,0.5-1.9C135.6,85.8,135.4,85.1,134.7,85.1z"/>
		<path class="st1" d="M117.4,53.1c0.7-0.9,0.5-1.6-0.7-2.3c-0.9,0-2.3,0.2-4.2,0.5c-0.9-0.7-1.6-0.9-1.9-0.7
			c-0.5,0.9-0.5,1.6-0.2,1.9c0.2,0.9,0.2,1.6,0.5,2.6c0.7,0.2,1.6,0.5,2.3,0.7C115.5,56.1,116.7,55.2,117.4,53.1z"/>
		<path class="st1" d="M121.8,71.8c0-0.9,0.2-2.1,0.2-3c-0.2-0.7-0.5-0.9-1.4-0.5c-0.7,0.2-1.4,0.7-2.1,0.9c0,0.2,0.2,0.5,0.2,0.7
			c-0.2,0.9-0.2,1.6-0.2,2.6C119.7,73.9,120.7,73.6,121.8,71.8z"/>
		<path class="st1" d="M176.8,43.5c0-0.5-0.2-0.9-0.2-1.2c-0.5-0.5-1.2-1.2-1.6-1.6c0,0.2,0.2,0.2,0.2,0.5c0.2,0.9,0.5,2.1,0.7,3
			c0.2,0.5,0.2,0.7,0.5,0.7c0,0,0,0,0,0.2c-0.2-0.2-0.2-0.2-0.5-0.5c-0.5-2.1-0.9-3.5-1.6-4.7c-1.9-1.9-4-3.7-6.1-5.6
			c0,0.5,0,1.2,0,1.9c0.2,1.2,0.7,2.1,1.6,2.8c0,0.5,0,0.9,0,1.4c-0.9-0.2-2.8-0.5-5.6-1.2c-2.1-0.7-3.3-2.1-3.7-3.7
			c0-1.2,0-2.6-0.2-3.7c0.5-1.4,0.9-2.1,1.4-2.3c-0.7-0.5-1.4-0.9-2.3-1.6c0,0.2-0.2,0.5-0.2,0.7c-0.2,0.9-0.5,1.9-1.2,1.9
			c0.2,1.6,0.5,3.5,0.7,4.9c-0.5,1.6-0.2,2.8,0.5,4.2c0.5,0,1.2,0,1.6,0c0.9,1.4,2.3,0.9,4.2,0.9c0.5,0.2,0.7-0.2,1.2,0.2
			c0.2,0.2,0.2,0.9-0.2,1.9c-0.9,0-1.9,0.2-3,0.9c-0.2-0.2-0.5-0.7-0.5-0.9c-0.5,0.2-0.9,0.7-1.9,1.6c-0.7,0.9-1.6,1.4-2.1,1.4
			c-0.2-0.2-0.2-0.5-0.5-1.2c-0.2-0.7-0.2-0.9-0.7-0.9c-1.2-0.2-1.4,0.7-0.9,2.3c0.5,0.5,0.7,2.6,0.9,2.6c-0.2,0-0.5,0-0.9,0
			c-0.5,0-0.9-0.9-1.6-2.3c-0.7-1.2-1.6-2.3-2.8-2.6c-1.4-0.2-2.3-0.2-3-0.5c-0.7-0.2-1.2-0.5-1.4-0.7c-0.2-0.2-0.5-0.7-0.2-1.4
			c-1.6-0.5-2.8-0.5-4,0c0-0.2-0.2-0.5-0.2-0.7c-0.5,0.2-1.2,0.9-1.9,1.6c-0.9,0.9-1.9,1.4-2.6,1.9c-0.7,0.5-1.2,1.2-1.4,2.6
			c-0.2,1.4-0.5,2.6-0.7,3.7c-0.5,1.2-0.9,2.3-1.4,3.5c-0.5,1.2-1.9,2.1-4,2.8c-0.7,1.9-0.5,4,0.7,5.8c0.7,0.9,1.4,0.9,2.3,0.2
			c0.9-0.9,1.4-1.2,1.9-1.2c0.5,1.2,0.9,2.3,1.6,3.5c-0.2,0.5-0.2,0.9-0.5,1.4c0.5,0,1.2-0.2,2.6-0.5c0.5-1.2,0.7-2.3,1.2-3.5
			c0.7-0.2,0.9-0.7,1.2-1.2c0.2-0.5,0.2-0.7,0-1.2c-0.5-0.7-0.9-1.4-1.4-1.9c-0.2-0.9,0-1.9,0.5-2.8c0.5-0.9,0.9-1.9,1.2-2.8
			c0.5-0.9,0.7-1.6,1.2-2.1c0.2-0.5,0.7-0.5,1.2-0.2c0.5,0.7,0.5,1.4-0.2,2.6c-0.5,0.9-0.9,1.9-0.9,2.6c-0.2,1.9,0.7,3,2.8,3
			c2.1,0.2,3.5,0.5,4.2,0.7c-0.2,0.2-0.2,0.7-0.5,0.9c-0.7,0.2-1.4,0.5-2.6,0.2s-1.6,0-1.6,0.7c0.2,0.5,0.5,0.9,0.7,1.4
			c0.2,0.5,0,0.7-0.2,1.2c-1.2-0.2-1.6,0-1.9,0.2c0,2.1-0.5,3.3-1.4,3.7c-1.4,0.2-2.8,0.5-4,0.7c-1.6,0.7-2.8,0.2-3.5-1.2
			c-0.2-0.9,0-1.9,0.2-3.3c-0.5,0.2-0.7,0.7-1.2,0.9c0,0.9,0,1.9,0,2.6s-0.2,1.2-0.5,1.4c-0.9,0.9-1.6,1.6-2.6,2.3
			c-0.7,0.7-1.6,1.2-2.6,1.6h-0.2c-0.2-0.2-0.2-0.5-0.5-0.7c0.2-0.2,0.2-0.5,0.5-0.7c-0.2-0.2-0.7-0.9-1.4-1.6
			c0-0.5-0.5-1.2-1.2-2.1c-0.7-0.9-1.2-1.6-0.9-2.3c0.2,0,0.5,0,0.7-0.2c0-0.2-0.2-0.7-0.9-1.6l0,0c0,0,0,0-0.2-0.2
			c0-0.2,0,0,0.2,0.2l0,0c0,0,0-0.2,0-0.7c-0.5,0-0.9,0-1.4,0c-0.9,1.4-1.4,1.6-1.2,3.5c0.5,1.2,1.2,1.6,2.1,2.1c0,0.2,0,0.7,0,1.2
			c-0.5,0.2-0.7,0.7-1.2,0.9c-0.2,0.9-0.7,4-0.7,5.4c0.5,0,0.7,0,1.2,0c0.9-1.4,2.6-3,4.9-2.6v-0.5c0,0,0,0,0.2,0c0,0,0.2,0,0.2,0.2
			c0.5,0.2,0.5,0.7,0.2,1.4c-0.2,0.7-0.7,1.4-1.2,1.4c-0.7,0-1.6,1.6-2.8,1.6c-0.7,0-1.4,0-2.1,0c0.9,1.4,2.1,1.6,3.3,2.6
			c0,1.9-0.2,2.3-0.9,2.6c-0.5,0.2-1.9,0.5-3.7,0.5c-1.2,0-1.9,0.5-2.1,1.6c-0.2,1.2-0.7,2.3-0.9,4c0.2,0.5,0.5,0.9,0.7,1.6
			c2.1,0.9,2.8,1.9,2.6,2.6c0,0.9-0.7,2.1-2.1,3.5c-1.4,1.4-1.9,2.8-1.6,4c-1.6,0.7-2.8,1.9-4,3.3c-0.2,0.2-0.9,1.9-2.3,4.7
			c0.2,0.9,0.5,1.6,0.7,2.6c-0.2,1.9-0.2,3.7-0.5,5.4c0,0.9,0.2,1.6,0.5,2.3c0.2,0.5,0.7,0.9,1.6,1.6c0.9,0.7,1.4,0.9,1.4,1.4
			c0.2,0.5,0.7,2.3,1.9,2.3c0.2,0,0.7,0,0.9,0c0.2,1.4,0.9,1.4,2.1,2.3c1.4-0.2,2.1,0,2.6-0.2c0.5-0.2,1.6-0.2,3.7,0
			c0.7,0.2,1.6-0.2,2.8-0.9s1.9-0.9,2.1-0.7c2.1,1.4,3.3,1.9,3.7,1.9c0.5-0.2,0.9-0.2,1.2-0.2c0.2,0,0.5,0.5,0.7,1.2
			c0.2,0.5,0,1.2-0.2,2.1c-0.2,0.9-0.5,1.4-0.5,1.6c0,1.2,0.5,2.3,1.6,3.7c0.5,0.7,1.4,1.6,2.6,3.3c0.2,0.7,0,1.6-0.5,2.8
			c0.7,1.4,0.9,2.1,0.7,2.6c-1.6,1.9-2.1,3.7-1.4,6.1c0.7,1.2,1.2,2.8,1.6,4.4c0.5,1.6,0.7,3,0.9,4c0.5,1.2,1.2,2.6,1.6,3.7
			c0.2,0.2,0.2,0.9,0.2,1.9c0,0.9,0.2,1.6,0.7,1.6c0.7,0.5,1.6,0.5,2.8,0.2c1.2-0.2,2.1-0.7,3.3-1.2s2.1-1.2,2.8-2.1
			c0.7-0.9,1.6-2.3,3.3-4.2c0-0.5,0-1.2,0.2-1.6c0.7-0.7,1.4-1.2,2.1-1.9s0.9-1.4,0.7-2.3c-0.7-0.5-0.7-1.2-0.5-2.3
			c1.2-0.9,2.1-1.9,3.5-3c1.2-0.9,1.9-2.1,2.1-3.3c0.2-0.9,0.2-2.6-0.5-4.4c-0.5-2.1-0.5-3.7,0-5.1c2.1-2.3,4.4-4.7,6.5-7
			c0.5-0.9,1.4-2.3,3-4.2c0-0.2,0.2-0.5,0.5-0.9c0.2-0.5,0.7-0.9,1.2-1.6c0.2-0.2,0.2-1.2,0.2-2.6c-0.2,0-0.7-0.2-0.9-0.2
			c0,0.2-0.2,0.7-0.9,1.2c-0.7-0.2-1.6-0.2-2.8,0c-1.2,0.2-1.6,0.5-1.9,0.5c-0.9-0.9-1.4-1.6-0.9-2.3c1.2-0.2,2.3-0.5,3.5-0.7
			c1.6-0.9,3.3-1.9,5.1-3c1.9-1.2,3.3-2.1,4-3c1.6-1.9,2.6-3.5,2.1-4.9c-0.5-0.2-0.9-0.2-1.4-0.5c-0.2,0-0.7-0.5-0.9-1.2
			c-0.2-0.7-0.7-1.2-1.2-1.2c-0.2-0.2-1.2,0-2.6,0.7c-0.5,0.2-0.9,0.2-1.6,0c0-0.5-0.2-0.9-0.2-1.2c-2.1-0.9-3-2.3-3.3-4
			c0.2,0,0.7-0.2,0.9-0.2c1.2,2.3,3.5,3.3,7,2.8c0.7,0,0.9,0.2,0.9,0.9c0.9,0,2.3,0,4.4-0.2c1.6,0,3,0.2,3.7,0.9
			c2.6,1.2,3.7,2.6,3.7,4.4c1.6-0.5,3,0.5,3.7,3c0.7,2.6,1.4,4,1.9,4.4c-0.2,0.9-0.2,1.6,0,1.9s0.2,0.7,0.5,1.4
			c0.7-4.7,1.2-9.6,1.2-14.5c0-23.1-8.9-44.4-23.4-60.5C177,43,177,43.3,176.8,43.5z M158.5,80.4c0.2-0.2-0.2-0.7-1.2-1.9
			c0.2-0.2,0.2-0.7,0.5-0.9c0.5,0.2,0.7,0.2,1.2,0.5c-0.2,1.6,0.9,3,3.3,3.7c0.7,0.2,1.2,0.9,0.9,1.6s-0.7,1.2-1.2,1.4
			c-0.9,0.2-1.9,0.2-2.6,0c-0.7-0.2-1.6-0.7-3-1.4c-0.2-0.2-0.7,0.2-1.9,0.9c-0.2,0-0.7,0.2-1.4,0.2s-1.2,0.2-1.4-0.2
			c-0.5-1.4,0-2.1,1.9-3.5c0.2,0,0.7,0,0.9,0c0,1.4,0.5,0.9,1.4,1.2C157.1,82.1,157.8,81.1,158.5,80.4z M152.9,48.9
			c0.7-0.2,1.4-0.2,1.9-0.5c0.5,0,0.7,0,0.9,0.2c0.2,0.2,0.2,0.7-0.5,1.4c-0.2,0.5-0.5,0.9-0.5,1.4c0-0.2-0.2-0.7-0.9-0.9
			c-0.2,0.2-0.5,0.7-0.7,0.9c0.2,0.2,0.5,0.7,0.7,0.9c0,0.5,0.2,0.7,0.2,1.2c-1.2-0.5-1.9-1.2-2.1-2.1c0-0.5,0-0.9,0-1.4
			C151.8,49.3,152.2,48.9,152.9,48.9z M141.2,82.8c0.9,0.5,1.6,1.2,2.1,2.3c-0.2,0-0.9-0.5-2.6-1.2c-1.6-0.7-2.3-1.6-2.3-2.6
			C139.4,81.8,140.3,82.3,141.2,82.8z M156.7,96.1c-0.9,0.5-1.9,0.7-2.6,0.7c-1.2,0-2.1-0.2-3.3-0.5c-2.8-0.9-4.4-1.2-5.1-1.2
			c-0.5,0-0.7,0.5-0.9,1.2s0,1.4,0.5,1.9c-1.2,0.2-2.3-0.2-3.7-1.6c-0.5-0.5-1.2-1.2-1.9-1.2c-0.5,0-0.9,0-1.4,0
			c-0.7,0-0.9-0.9-0.7-1.9c0.2-0.9,0.2-1.9,0-2.3c-0.2-0.2-0.5-0.5-0.7-0.7c-0.7,0.2-2.6,0.2-5.6,0.2c-0.7,0-1.9,0.2-3.5,0.5
			c-0.7,0.5-1.6,0.9-2.6,1.4c-0.9,0.5-1.6,0.7-2.6,0.7c0-0.2,0.5-0.7,1.6-0.9c1.2-0.2,1.9-1.2,2.6-2.6c0.2-0.7,0.5-1.2,0.7-1.9
			s0.7-0.9,1.4-1.4c0.7-0.5,0.9-0.7,1.2-1.4s0.5,0,1.2,0c0.7,0,1.6,0,2.8,0c0.7-1.4,1.6-0.9,2.8,0.2c0.7,0.5,1.6,0.5,3,1.9
			c0,0.7,0,1.2,0,1.9c-0.2,0.2-0.5,0.2-1.2,0.2c-0.7,0-0.9,0.2-0.9,0.7c0.2,1.4,1.2,1.9,2.6,1.6c0.2-0.5,0.9-1.4,1.9-2.6
			c0.2-0.2,0.2-0.9,0-1.6c0.7-0.2,1.4,0.2,1.9,0.9c0.5,0.9,1.2,0.9,1.6,2.3c0.9,0,1.6,0,2.6,0c0.7,0,0.9-1.2,0.7-1.9
			c-0.2-0.2-0.9-0.7-1.9-1.2c-0.5-0.9-0.5-1.4,0.2-1.6c0.7-0.2,1.2-0.2,1.6-0.2c-0.2,1.2,0.2,2.3,0.9,3.3c0.7,0.7,1.6,1.4,2.3,2.1
			c1.9,0.2,3.3,0.2,4,0c1.6-0.9,2.6-1.2,2.8-0.7c0,1.2,0,1.9,0,2.3C159.5,94,158.5,94.9,156.7,96.1z M167.4,115.7
			c-0.7,0-1.9-0.9-3.5-3c-0.5-1.2-0.9-2.8-1.9-4.7c0-0.5-0.5-1.4-1.6-2.6c-1.6-1.9-2.1-3.5-1.4-5.1c0.7-0.2,1.4,0.5,2.1,1.9
			c0.2,0.2,0.5,0.9,0.7,1.6c0.5,0.7,0.7,1.2,1.2,1.9c0.2,0.2,0.5,0.2,0.7,0.5c0,0.2,0.2,0.7,0.2,0.9c0,0.2,0.2,0.9,0.9,2.1
			c0.5,0.7,1.2,1.6,1.6,2.3c0.7,0.9,0.9,1.9,0.9,2.6C167.4,114.5,167.4,115,167.4,115.7z"/>
		<path class="st1" d="M113.7,44c0.7-1.2,0.2-2.8-0.9-4c0.2-0.2,0.5-0.7,0.7-0.9c-0.2-0.2-0.2-0.7-0.5-0.9c0.2-0.2,0.9-0.5,2.1-0.5
			c0.2-0.7,0.7-1.2,1.2-1.9c0.2-1.2,0.2-2.3,0.5-3.5c0-0.5-0.2-0.7-0.2-1.2c0.9-0.5,1.4-1.2,1.4-1.9c0-0.9,0.2-2.3,0.9-4.2
			c0-0.2,0.2-0.5,0.7-1.2c0-0.2,0.2-0.2,0.2-0.7c0.2-0.2,0.7-0.9,1.2-1.9c0.5,0.2,0.7,0,0.9-0.2c0.2-0.2,0.5-0.7,0.9-1.4
			c0-0.7-0.2-1.2-0.5-1.2c-0.9-0.2-1.4-0.2-1.9,0c-0.5,0.5-0.9,0.5-1.2,0.5c-0.5-0.5-0.7-0.9-0.5-1.4c0.2-0.5,0.7-0.9,1.4-1.2
			c0.2-0.2,0-0.7-0.2-1.4c-0.7-0.5-1.2-1.2-1.6-1.9c-1.6-0.2-3-0.2-4.7-0.2c-0.2,0.2-0.2,0.2-0.5,0.2c-1.2,0-2.1,0.5-2.8,1.4
			c-0.7,0.2-1.2,0.2-1.9,0.5c0-0.2,0-0.2,0-0.5c0-0.2-0.2-0.2-0.2-0.5c-0.2,0.2-0.5,0.7-0.7,1.2c-0.2,0.7-0.2,0.9-0.5,0.9
			c-0.5,0-0.5-0.5-0.2-1.4c0-0.2-0.5-0.2-1.2,0c-1.2,0.2-1.9,0.2-2.1,0c0.5-0.5,0.9-0.9,0.7-1.4c0-0.2,0-0.5,0-0.5
			c-6.1,0.5-12.2,1.4-18,3c-0.5,0.5-0.7,0.9-0.9,1.4c-0.9,1.9-1.6,3.3-1.9,4.4c0,0.2,0.5,0.2,1.6-0.2c0.2-0.2,0.2,0,0.5,0.2
			c-0.5,0.7-1.4,1.6-3,2.6c-0.2,0.2-0.5,0.7-0.7,1.6c0,0.2,0.2,0.2,0.2,0.5c0.2-0.2,0.2-0.2,0.5-0.5c0.2,0.2,0.5,0.7,0.7,1.2
			c1.4-0.2,2.1,1.2,2.3,1.2c0.2,0,0.5,0,0.7,0c0.5,0,0.9-1.4,1.4-2.1c0.7-0.7,1.4-1.6,2.3-1.9c0.9-0.2,1.6-1.2,2.1-2.6
			c0.2-0.2,0.2-0.2,0.5-0.5c0.2-0.2,0.5-0.5,1.2-0.9c1.2-0.2,2.8-0.9,4.7-2.1c0.2,0.2,0.2,0.2,0.5,0.5c-0.2,0.2-0.5,0.2-0.7,0.5
			c-0.2,0.9-0.5,1.9-0.9,2.8c-0.9,0.2-1.6,0.2-2.6,0.5c-0.7,0.2-1.4,0.5-1.9,0.5c-0.5,0.2-0.7,0.7-0.7,1.4c0,0.7,0,1.2-0.2,1.6
			c-0.5,0.5-0.9,0.7-1.2,1.2c-0.2,0.5-0.2,1.6,0,3c1.2-0.2,1.9-0.5,2.3-0.5c1.2,0,1.9,0.7,2.1,2.1c0.2,1.4,0.2,2.8,0,4
			c-0.5,1.9-0.9,3.3-1.9,4.4c-0.7,1.9-0.5,3.3,0.7,4c0,0.2-0.2,0.7-0.7,1.2c-0.7,0.5-0.9,0.9-0.7,1.2c-0.5,0.2-0.7,0.2-1.2,0.5
			c-0.2,1.2-0.7,2.1-1.2,2.8c0,0.2,0,0.9,0.2,1.6c-0.5,2.1-0.2,4.2,0.5,6.1c0.7,2.1,1.6,3,3.3,3c0.7-1.4,1.4-2.8,2.1-4.4
			c0.2-0.2,0.7-0.2,0.9-0.5c0.2-1.6,0.9-2.8,2.3-3.5s2.6-1.2,3.5-1.6c0.9-0.5,1.9-0.5,2.6-1.9c0.5,0,0.9,0,1.2,0
			C109.7,48.6,112,45.8,113.7,44z M88.4,21.8c-0.5-0.2-0.9-0.5-1.4-0.9c0.2-1.2,0.7-1.4,1.6-1.2c-0.2,0.2-0.2,0.2-0.5,0.5
			C88,20.8,88.2,21.3,88.4,21.8z"/>
	</g>
</g>
<g>
	<path class="st1" d="M252.5,89.3c0.5,3.3,0.5,10.5,0,14v2.3c0,1.9-0.5,4.2-1.4,6.1c0.5,0,4,0,4.2,0.5c0.2,0.7-0.2,1.4-0.7,1.4
		c-0.9,0-4.9-0.7-5.8,0h-6.5c-0.5,0-0.5-0.7-0.5-0.7c0-0.5,0-0.9,0.5-0.9h0.9c1.4,0,1.4-0.5,2.3-0.5c-0.5-4.7-0.9-13.1-0.9-17.8
		c0-3.7,0.9-7.5,0.5-10.5c-0.5-5.1-0.5-9.8,0-14.5c0-7.5,1.2-14.3,1.6-21.7c0-0.9,0-1.9,0.5-2.8c-0.5-0.5-3-0.7-3.7-1.2
		c0-0.7,0-0.9,0.7-0.9c1.2,0,5.6-0.5,7.2-0.5c1.9,0,3.7-0.2,5.6-0.2c1.9,0,5.8,0.9,7.7,1.9c2.8,0.9,4.7,2.8,5.8,4.9
		c0.9,1.4,0.9,3.3,0.9,4.7c0.5,3.3,0.5,6.5-0.5,9.8v0.5c0.5,3.3-1.4,5.6-2.8,7.9c-0.5,1.4-1.4,1.6-1.9,2.3c-0.9,1.9-5.8,2.1-7.7,3
		c-0.9,0.5,3.5,2.6,4,4.9c2.6,5.6,3.7,15.2,5.6,20.6c0.7,1.6,0.9,4,1.2,6.1c0.2,1.6,0,2.6,0.2,4.2c0,0-0.2,0.2-0.2,0.7h0.7
		c1.9-0.7,4.2-0.2,4,1.2c-0.2,0-0.5,0.5-0.7,0.5c-0.7,0-1.2,0.2-1.6,0.2c-1.9,0.2-4.4,0.5-6.5,0.5c-0.2,0-0.7,0-0.9-0.5
		c-0.5,0-0.7-0.5-0.7-0.9c0.7-0.7,1.2-0.2,1.9-0.7c0,0-0.2-0.2-0.2-0.5c-0.2-0.5-0.2-0.7-0.7-1.4c-0.9-3.7-2.3-7.5-3.3-11.2
		c-0.5-1.9-1.4-7.5-1.9-9.1c-0.5-1.4-1.9-9.3-2.6-10.3c-0.7-1.6-2.6-3.3-3.5-3.3H252c0,0.7-0.2,1.2-0.2,1.9
		C251.6,83,251.6,86.3,252.5,89.3z M250.9,94.4c0-0.9-0.5-1.9-0.9-2.8c-0.7,0.9-0.7,1.9-0.7,2.8c0.7,0.9,0.7,1.9,0.7,2.8
		c-0.7,0.9-0.7,1.9-0.7,2.8s-0.5,2.3,0.7,3.3C251.3,100.5,250.9,97.7,250.9,94.4z M251.1,63.6c0.2-0.7,0.7-9.1,0.2-9.6l-0.5-1.4
		c0,0.7-0.5,1.9-0.7,2.6c0,0.5,0.2,4.4,0.2,4.9L251.1,63.6z M253,46.8c0.9,7,0,14,0,21.5c0,2.6-0.2,5.4-0.5,7.9
		c0.7,0,1.9-0.2,1.9-0.2c2.3-0.9,3.7-3.3,5.1-5.1c2.3-5.1,2.3-3.7,2.3-10.3c-0.5-2.3,0-5.1,0-7.5c0-1.2-0.5-2.3-0.9-3
		c-0.9-1.4-1.9-2.3-2.3-3.7c-0.7-0.9-0.9-1.4-1.9-1.4c-0.9-0.5-2.3-0.9-3.3-1.2c-0.5-0.7-0.9,1.2-1.9,0.7
		C252.3,45.6,253,45.4,253,46.8z M266.1,68.5c0.9-1.4,0.9-2.8,0.5-4.7C265.6,65.7,265.6,66.2,266.1,68.5z M267,108l0.2,2.3
		c0.7-0.7,0.7-0.7,0.5-1.6l0.2-0.9c0-0.5,0-0.9-1.2-1.6C266.8,106.6,267,107.3,267,108z M268.9,51.9c0-0.9-0.5-1.9-0.9-2.3
		c0-0.5-0.5-0.5-0.9-0.9c0,1.9,0.5,3.7,0.9,5.6c0.5,0.5,0.9,0.9,1.4,1.4C269.3,54.2,269.3,53.1,268.9,51.9z"/>
	<path class="st1" d="M303.9,105v-1.4c0.2-0.2,0.5-0.2,0.7-0.5c0.2,0,0.7,0.2,0.9,0.2v2.6c0,2.6-3.5,4.9-4.9,5.4
		c-0.7,0-0.7,0.5-0.9,0.5c-3.3,0-5.4-3.7-5.6-7.7v-1.2c0-0.2,0-0.2-0.2-0.2c0,0-1.9,1.9-2.6,3c-0.5,1.9-3.7,4-4.2,4
		c-4.9,0-6.8-3-6.8-8.6c0-2.3,0.2-3.5,0.7-6.3c0-2.3,3-6.1,4.9-7.2c3.5-2.3,9.3-1.6,10.5-5.6c0-1.9,0-3.5,0-5.4c0-0.9,0-1.9-0.2-2.6
		v-2.6c0-0.7,0-0.7-0.7-0.9c-0.7-1.6-1.2-2.1-3.3-2.1c-4.7,0-4.2,2.6-4.2,2.3c0.7,1.4,1.9,2.6,2.8,3.5c0.2,5.6-4,5.4-4.4,5.4
		c-2.3,0-2.3-1.2-3-1.9V75c-0.2-5.6,4.4-7.7,5.1-7.7c2.6-1.2,3.7-1.2,5.8-1.2h0.7c7.7,2.3,9.1,4.9,9.3,13.6
		c-0.7,2.8-0.2,6.1-0.7,9.1c0.2,6.3-1.9,13.3-1.6,19.6C303.9,107.8,303,105,303.9,105z M282.2,103.6c0,0.5,0.2,0.7,0.7,0.7
		c0.2,0,0.2,0,0.5-0.2v-2.6c-0.7,0-0.7,0-1.2-0.5V103.6z M286.6,77.8c0.7,0,0.2-0.9,1.2-1.2c0-1.2,0-1.4-1.2-1.9
		c0,0.9,0,1.6-0.9,2.1C286.4,76.9,286.2,77.8,286.6,77.8z M285.7,94.4c0,0.2,0,0.2,0.5,0.5c0-0.5,0.5-1.2,0.5-2.1
		C285.9,93.7,285.7,94.2,285.7,94.4z M288.7,93.7c-0.5,0.7-0.5,1.6-0.2,2.8c-0.7,0.5-0.7,1.4-0.7,2.6c0,2.1,0.5,5.4,2.3,5.4
		c0.7,0,4.2-4.4,4-5.8V97c0.7-0.7,1.6-8.2,1.6-10.5c0-0.2-0.2-0.2-0.2-0.7c-1.6,0.5-3,1.2-4.7,1.6C290.6,88.8,289,93.5,288.7,93.7z
		 M299.2,70.6c0,1.2,0,2.1,1.2,2.6C299.7,71.8,299.7,71.8,299.2,70.6z M299.5,84.4c0,0.7-0.2,1.4-0.2,2.3c0,0.5,0,0.9,0.2,1.4
		c0.5-1.6,0.5-2.6,0.5-3.7H299.5z M300.9,78.6h0.7c0-0.5,0-1.2-0.7-2.1V78.6z"/>
	<path class="st1" d="M325,68.5c-0.7,3.3-0.9,5.8-0.9,9.8c0,3-0.5,5.6-1.2,7c-0.5,2.6,0,3,0,5.8c-0.5,1.2,0,3,0,4.2
		c0,1.6-0.7,3.7-0.7,5.4c0,2.8,0.7,5.4,1.2,7.5c1.2,0,1.6,0,2.1-0.5h1.2c0,0,0.7,0,0.7,0.5v0.7c-1.6,1.2-2.8,1.2-4.2,1.4
		c-2.6,0.7-5.4,0.7-7.9,0.7c-1.2,0-1.2,0-2.1-0.9c0.7-2.1,2.1-1.6,3.3-2.1c-1.2-4.9-0.5-10.1-0.5-14.7c0-4.2,0-7.9,1.2-12.4v-2.6
		c0-2.6,1.2-4.7,0.9-7h-2.1c-1.9,0-1.2-0.5-1.6-1.2c0.7-0.5,1.2-0.5,1.6-0.5c1.2-0.7,1.2-0.2,2.6-0.7c1.2-0.7,1.4-0.7,4-1.9
		c0.9-0.5,1.9-0.7,2.8-0.7c0.9-0.7,1.9-0.2,1.6,0.9C326.1,67.8,325.9,68.5,325,68.5z M319.6,53.8c0.5-1.6,1.2-2.1,2.6-2.1h2.1
		c1.2-0.7,2.1,0,3.3,1.2c0,1.2,0.7,1.6,1.2,2.1c0.7,0,0.7,0.9,0,0.9c0,0.5,0,1.2-0.5,1.6c-1.2,1.2-1.6,2.1-2.8,3
		c-2.6,1.6-4.7,0.7-6.3-1.4c0-0.7,0-1.2-0.5-1.6C318.9,56.1,318.9,55.2,319.6,53.8z M321,93.7l-0.7,0.7c-0.5,0.9-0.9,3.5-0.9,5.4
		c0,0.7,0,1.4,0.2,1.9C320.3,98.9,321,96.3,321,93.7z M321,84.4l-0.7-0.7c-0.2,0.5-0.2,0.7-0.2,0.9c0,0.7,0.5,1.4,0.9,2.1L321,84.4
		L321,84.4z M320.7,107.3h0.7c-0.2,0-0.2-0.2-0.2-0.7C321.2,106.8,320.7,106.8,320.7,107.3z M321.7,56.8c0,0,0,0.5,0.5,1.2
		c0-1.6,0.7-2.8,1.2-3.7C322.2,54.7,321.7,55.6,321.7,56.8z M326.4,55.6c-0.5,0-0.5,0-0.5,0.5C326.4,56.1,326.4,56.1,326.4,55.6z"/>
	<path class="st1" d="M346.7,66.6l-0.5,7.9c0,1.9-0.7,2.6-0.7,4.4c0.7,0,0.7-0.7,0.7-0.7c0.7-2.8,1.9-5.6,3.3-6.8
		c1.4-1.2,2.3-3.7,3.7-4.2c1.4-1.4,2.1-1.9,4.2-2.3h1.2c3-0.2,4.9,3.3,4.9,6.3c0,1.4,0.5,3,0.5,4.4c0,4.4,0.7,9.1-0.7,13.8
		c0,0.7-0.7,3-0.7,4.4c0,4.2-1.2,7.9-2.1,11.2c1.4,0,2.6,0.2,2.6,0.9v0.7c0,0.7-0.7,0.7-0.7,0.7c-0.9-0.2-1.9,0.2-2.6,0.2
		c-0.9,0-1.6,0-2.6,0.5H353c-0.2,0.2-1.4,0-1.6,0c-0.7,0-0.9-1.4-0.9-1.9c0-0.7,1.9-0.7,2.1-0.7h1.9c-0.7-1.2-0.9-1.9,0-2.6
		c0.7-2.1,0.2-2.1,1.2-20.3c0-1.9-0.7-4-0.7-5.1v-1.4c-2.6-0.7-1.6-3.5-3.3-4.4c-4.2,4-5.8,11.9-5.8,16.8v1.9c0,1.9-0.5,4.9-0.5,6.3
		v4.2l-2.8,4.4c0,0.7,0,0.7-0.7,1.4h0.7c1.4,0,1.6,0,3-0.7h0.7c0.2,0.2,0.2,0.5,0.2,0.7c0,0.5,0,1.4-1.4,1.4
		c-1.9,0.7-3.7,0.7-5.6,0.7c-1.2,0-1.9,0.5-3.3,0.5c-1.2,0-1.9-0.2-1.9-0.9c0.7-0.7,0.5-1.4,0.9-1.4c0.7,0,1.9,0,2.3,0
		c0.2,0,0.2,0,0.5-0.2V95.6c0.2-0.2,0.5-0.7,0.5-0.9s-0.2-0.7-0.5-1.2v-7.2c0.7-1.9,0.7-4,0.7-5.8v-7.2c0-1.4,0-4,0.7-5.4
		c-0.7,0-0.7,0.2-1.9,0.2c-0.7,0-1.4,0-1.4-0.7c0-1.2,1.4-0.7,1.9-1.9h0.7c2.3,0,5.8-1.9,6.8-1.9c0.5,0,1.9,0,2.1,0.7
		C347.2,64.8,346.7,65.2,346.7,66.6z M341.8,88.8c0.2-0.2,0.5-0.5,0.5-0.7c0-0.2,0-0.5-0.5-0.7V88.8z M343.4,65.2
		c0.7,0,0.7,0,0.7,0.7c0.5-0.7,0.7-0.7,0.7-0.9c0,0,0-0.2-0.2-0.5C344.1,64.5,343.4,64.5,343.4,65.2z M355.3,67.6l0.7,0.7
		c0.7,0,0.7-0.7,0.7-1.4H356L355.3,67.6z M359.5,74.6c0,1.2-0.2,2.6-0.2,4.2c0,0.7,0,1.6,0.2,2.6c0.7-1.2,1.2-2.8,1.2-4.7
		c0-1.2,0-2.6-0.5-4C360.2,73.4,359.5,74.1,359.5,74.6z"/>
	<path class="st1" d="M399,91.6c0,4.4,0,7.7,0,12.4v1.4c0.7,0,0.9,0.7,0.9,1.2v0.7h-1.2c-2.8,0-5.6,0.7-7.7,0.7h-1.4v-0.7
		c1.4-1.4,3-0.7,5.1-1.4h-1.4c-0.7-0.7-0.9-1.9-0.9-2.6c0-0.9,0.2-1.9,0.2-2.6v-0.7c-0.2-0.7-0.2-1.4-0.2-2.1c0-1.6-0.5-3,0-4.9
		c0-2.3,0.2-4.4,0.2-6.5c0-1.2,0-2.3-0.2-3.3v-7.9c-0.7-1.4-0.7-2.1-1.2-2.6c-0.7,0-1.4,0-1.9-0.7c-3,2.6-4.7,11-4.7,11.2
		c0,3.3,1.2,3,0.5,6.3v5.1c0.7,0.7-0.5,4.2-0.5,4.9v4.4c0,1.2,0.2,2.3,0.2,3c0.5,0.7,1.6,0.2,2.3,0.9c0,0.7,0,0.7-0.7,1.2
		c-4,0-4.7,0-5.1,0c-1.9,0.7-3.3,0-5.4,0.7h-0.7c-0.7,0-1.4-0.7-1.4-1.2c1.4-1.4,2.6-1.2,4-1.4l-0.5-8.4c-0.2-3,0.2-17.5,0.2-19.2
		c-0.2-2.1,1.2-10.3-0.7-9.3l-1.4,0.7c-1.9,1.4-2.3,0-1.9-0.7c6.3-4,9.6-5.1,11-5.1c0.7,0,1.4,0.7,1.4,1.2c0,1.4-0.7,2.8-0.7,4
		c0,1.4-0.2,3-0.2,4.4c0.7-2.3,4.4-6.1,4.9-6.5c4.2-2.1,6.1-1.2,6.8-0.9c3,1.6,3.3,3.3,3.3,6.5c0.7,1.4-0.2,2.8-0.2,4v2.3
		c1.4-3.3,2.6-5.6,3.7-7.7c1.6-3.3,6.5-5.8,8.9-5.8c4.2,0,5.8,4.4,5.8,8.2v4.7c0,4-1.9,10.3-2.6,14.3c-0.7,3.3,0,11.5-0.7,14.7
		c1.2,0.7,2.8,0.7,3,1.4c0.2,0.5,0,1.2-0.2,1.4c0,0-0.7,0.2-0.9,0c-3-1.2-9.1,0-10.1-0.7c-0.7-0.5-3,0.5-2.6-0.9
		c0-0.2,0.2-0.7,0.7-0.7c0.2,0,0.7-0.5,0.9-0.2h1.2c0.5,0,0.9,0,0.9-0.2l0.2-1.9c0-1.2-0.5-10.1-0.5-10.8c-0.2-0.7,0.5-1.6,0.5-2.1
		c0-1.2,0.2-2.1,0.2-3l0.9-12.4c0-1.6-0.5-3.5-3.5-3.5c-3,0-4.9,6.3-6.1,9.8c-0.7,0.7-0.9,5.4-0.9,6.1L399,91.6L399,91.6z
		 M380.3,77.1c0-0.7-0.2-1.6-0.2-1.9c0,0.9-0.5,1.4-0.5,2.1c0,0.2,0,0.7,0.5,1.2C380.3,78.1,380.3,77.6,380.3,77.1z M393,69.9
		c0,0.7,1.2,1.9,1.9,1.9c0-0.7,0-1.2-0.7-1.9H393z M396.9,83c0.7-0.7,0.7-1.4,0.7-2.6C396.9,81.1,396.9,82.5,396.9,83z M398.8,71.8
		v-0.7c0-0.7,0-1.2-1.2-1.9C397.6,69.7,398.1,71.8,398.8,71.8z M407,72.7c-0.5-0.5-0.7-0.9-0.9-0.9c0,0-0.2,0-0.5,0.2v0.7H407z
		 M411,70.1c-0.7-0.7-1.4-0.7-1.9-0.7v0.7H411z M414.9,69l-0.7-0.7h-0.7V69c0.7,0,0.7,0,1.4,0.7V69L414.9,69z M413.5,89.8v2.6
		c0-0.7,0.7-1.4,0.7-2.6H413.5z M415.4,72c0.7,0.5,0.7,0.7,0.7,0.9c0-0.7-0.2-1.2-0.7-1.6V72z"/>
	<path class="st1" d="M451.6,105v-1.4c0.2-0.2,0.5-0.2,0.7-0.5c0.2,0,0.7,0.2,0.9,0.2v2.6c0,2.6-3.5,4.9-4.9,5.4
		c-0.7,0-0.7,0.5-0.9,0.5c-3.3,0-5.4-3.7-5.6-7.7v-1.2c0-0.2,0-0.2-0.2-0.2c0,0-1.9,1.9-2.6,3c-0.5,1.9-3.7,4-4.2,4
		c-4.9,0-6.8-3-6.8-8.6c0-2.3,0.2-3.5,0.7-6.3c0-2.3,3-6.1,4.9-7.2c3.5-2.3,9.3-1.6,10.5-5.6c0-1.9,0-3.5,0-5.4c0-0.9,0-1.9-0.2-2.6
		v-2.6c0-0.7,0-0.7-0.7-0.9c-0.7-1.6-1.2-2.1-3.3-2.1c-4.7,0-4.2,2.6-4.2,2.3c0.7,1.4,1.9,2.6,2.8,3.5c0.2,5.6-4,5.4-4.4,5.4
		c-2.3,0-2.3-1.2-3-1.9V75c-0.2-5.6,4.4-7.7,5.1-7.7c2.6-1.2,3.7-1.2,5.8-1.2h0.7c7.7,2.3,9.1,4.9,9.3,13.6
		c-0.7,2.8-0.2,6.1-0.7,9.1c0.2,6.3-1.9,13.3-1.6,19.6C451.6,107.8,450.7,105,451.6,105z M429.9,103.6c0,0.5,0.2,0.7,0.7,0.7
		c0.2,0,0.2,0,0.5-0.2v-2.6c-0.7,0-0.7,0-1.2-0.5V103.6z M434.3,77.8c0.7,0,0.2-0.9,1.2-1.2c0-1.2,0-1.4-1.2-1.9
		c0,0.9,0,1.6-0.9,2.1C434.1,76.9,433.9,77.8,434.3,77.8z M433.4,94.4c0,0.2,0,0.2,0.5,0.5c0-0.5,0.5-1.2,0.5-2.1
		C433.9,93.7,433.4,94.2,433.4,94.4z M436.4,93.7c-0.5,0.7-0.5,1.6-0.2,2.8c-0.7,0.5-0.7,1.4-0.7,2.6c0,2.1,0.5,5.4,2.3,5.4
		c0.7,0,4.2-4.4,4-5.8V97c0.7-0.7,1.6-8.2,1.6-10.5c0-0.2-0.2-0.2-0.2-0.7c-1.6,0.5-3,1.2-4.7,1.6C438.3,88.8,436.7,93.5,436.4,93.7
		z M447,70.6c0,1.2,0,2.1,1.2,2.6C447.4,71.8,447.4,71.8,447,70.6z M447.2,84.4c0,0.7-0.2,1.4-0.2,2.3c0,0.5,0,0.9,0.2,1.4
		c0.5-1.6,0.5-2.6,0.5-3.7H447.2z M448.6,78.6h0.7c0-0.5,0-1.2-0.7-2.1V78.6z"/>
	<path class="st1" d="M469.2,95.4v1.4c0.2,0.9,0.5,1.9,0.5,2.6c0,1.6-0.9,3.7-0.9,4.9c0.7,0.7,1.4-0.5,3,0.2
		c0.5,0.5,0.2,0.9-0.5,1.2h-0.7c-0.9,0-3.3,0.9-4.2,0.9c-1.9,0-3.3,0-4.7,0.7c-0.7,0-1.4,0.7-2.1,0.2l-0.5-0.7
		c1.4-1.4,2.6-1.4,4.4-1.4c-0.7-1.9-0.7-3.3-0.7-4.7v-9.8c0-2.6,0.7-6.1,0.7-9.3c0-1.9,0.7-4,0.7-6.5c0.7-4-0.5-7,0.2-11
		c0-2.6,0.7-5.1,0.7-7.9c-0.2-0.5-0.2-0.7-0.2-1.2c0-0.9,0.5-4.9,0.5-6.1l-1.9,0.2c-0.2,0.2-0.5,0.2-0.7,0.2c-0.7,0-1.2-0.5-1.2-0.9
		c0-0.2,0.7-1.2,1.2-1.2c5.6-0.7,7.7-3.5,9.1-3.5l0.7-0.7c0.7,0,1.4,0.7,1.4,1.2v1.2c-0.7,1.4-0.7,3.3-0.7,4.7v4.7
		c0,0.7,0,1.2-0.7,1.9v0.7c-0.7,0.7-0.7,1.9-0.7,2.6C472,68,471,72,471,80.2c-0.7,1.2-0.7,1.9-0.7,3v1.4c0.5,0,7.2-10.3,7.2-9.1
		c0.2-0.2,1.6-5.4,1.4-5.6c-1.4-0.5-3.5-0.5-2.3-1.6c1.2-1.2,6.5-1.2,8.6-1.2h1.9c0.7,0,0.7,0,0.7,0.7v0.7l-3.3,0.7
		c-2.8,1.6-5.4,6.5-9.8,12.9c-1.2,1.4-0.9,1.4,0.5,3.3c0.7,1.2,2.8,3.7,3.7,5.8c1.2,3.7,2.6,7.5,4,11.2c0.7,0.7,0.7,0.7,0.7,1.2
		l1.4,3h1.4c0,0.5,0.2,0.5,0.2,0.7c0,0,0,0.2-0.2,0.5l-10.1,0.5c-1.9-2.1,2.6-0.9,0.9-2.6c-3.3-5.4-3.7-8.6-6.8-13.8
		c0-0.7,0-0.7-0.7-2.1C469.9,93,469.9,94.2,469.2,95.4z M465.9,90.2c-0.5,0.5-0.5,0.9-0.5,1.4c0,0.5,0,1.2,0.5,1.9V90.2z
		 M468.5,81.1v2.3c0-0.5,0.7-1.2,0.7-1.9C469.2,81.1,469.2,81.1,468.5,81.1z M470.1,58.7c0-0.2,0.2-0.2,0.7-0.2c0-0.7,0.2-1.9,0.2-3
		c0-0.7,0-1.2-0.2-1.6c0,0.9,0,1.4-0.7,1.9V58.7z M471.5,50.5v-1.9c-0.7,0.5-1.2,1.2-1.2,1.9c0,0.2,0,0.5,0.2,0.7
		C470.8,51.2,471.5,51.2,471.5,50.5z"/>
	<path class="st1" d="M512.2,64.1c2.6,0,4.2,1.6,5.4,3.7c1.2,2.6,2.1,5.4,2.1,7.9c-0.5,2.1-0.5,4.2-0.5,6.3c0,0.7,0.9,1.2,0.2,1.9
		c0,1.2-0.9,0.9-1.9,0.9c-4.2,0-7.9,1.2-10.1,0.5c-1.2,0-2.1,0-3.3,0.7c0,2.1-0.7,4.2-0.7,5.8c0.7,1.6,0.7,2.6,0.7,3.7
		c0,2.1-0.5,4.7,0,6.8c0.5,1.6,1.2,2.6,2.1,4.2c1.2,1.2,2.1,1.6,3.7,0.7c0.7-0.7,2.1-0.7,2.1,0c0.9-0.7,0-0.7,0.9-1.4
		c1.2-1.6,1.6-4.4,2.1-6.1c0.7-0.7,0.7-0.7,0.7-1.2c0,0,1.6-0.7,2.1,0.5v0.7c0,1.6,0,2.6-0.7,3.7c-0.5,1.6-1.6,3.7-2.6,4.2
		c-1.2,0.7-2.1,1.6-3.7,2.1c-4.2-0.2-8.6,0.5-11.9-4l-0.5-0.7c-2.8-3-3.7-8.6-3.3-12.9v-9.8c0-3.3,1.2-5.8,1.9-8.9
		c0.5-1.6,1.2-3,2.1-4.2c0.7-1.2,1.2-2.1,1.2-3.3c0.7-0.9,1.6-1.4,2.6-2.1c1.2-1.2,2.1-1.2,3.3,0c0.5,0.7,1.2,0.7,1.4,0
		C510.5,63.6,510.8,64.1,512.2,64.1z M499.3,99.6c-1.2-2.1-1.2-4.9-1.2-7.5c0.7-1.6,0.5-9.6,0.5-11c0-1.2,0-2.1-0.5-3.3l-0.5,17.5
		c0,2.1,0.5,3.7,1.6,5.4V99.6z M506.8,82.5c1.6,0,1.2,0,3.5,0v-0.9c0.5-1.6,0.5-3.3,0.5-4.9c0.7-2.6,0.5-4.7,0.5-7.5
		c0-0.5,0-0.5-0.5-1.2c0-0.5,0-1.2-0.7-1.6c-1.6-0.9-2.3-1.6-3.3-0.7c-2.1,5.4-1.6,11.2-2.1,16.6C505.9,83.2,505.6,83.2,506.8,82.5z
		 M517.1,70.4c-1.2-1.2-1.2-2.1-2.1-2.6c-0.7,0.5,0,1.2,0,1.6c1.9,0.5,1.6,1.9,1.6,3.7C517.1,72,517.6,71.5,517.1,70.4z"/>
	<path class="st1" d="M549.3,69.9c0,1.9-1.6,4.7-3.7,4.7c-2.8,0-2.6-1.9-4.4-1.6c-1.6,4-4,10.5-3.3,14c0.5,4.7-0.2,7,0.5,11.2
		c0,2.1,0.5,4.2,0.5,6.8v1.2c0.7,1.2,1.4,1.2,2.6,1.6c0.5,0,0.5,1.2,0,1.6c-0.9,0-1.6,0.5-5.4,0.9c-0.7,0-2.1,1.2-3.3,1.2
		c-1.4-0.2-3.3,0.5-4.2-1.2c0.5-0.9,1.6-0.9,2.6-0.9c0.7-1.2,1.6-0.5,1.2-1.6l-1.2-5.8c-0.5-2.8,0-4-0.5-6.5c-0.5-3.7,0-6.8,0-10.5
		c-0.7-3-0.2-8.4-0.2-11.9v-2.1c-2.6,0.5-3.5,0.7-4.2-0.7c0.7,0,0.7-0.7,1.2-0.7c2.1-0.5,5.1-1.9,7.5-3c0.5,0,1.6-1.2,2.3-1.4
		c0.7-0.2,0.7,0.7,0.7,1.2c0,0.5-0.7,1.2-0.7,1.6c0.7,2.8-0.2,10.5,0.2,13.3c1.2-4.7,2.6-11.5,4.9-14c1.6-1.6,3-2.1,4.2-2.1
		s2.1,0.7,2.6,1.9c0,0.7,0.5,0.2,0.5,0.9L549.3,69.9z M535.5,102.6c-0.7,0-0.7,0.7-0.7,1.6C536.2,103.1,536.2,103.1,535.5,102.6z
		 M536.2,96.8c0-2.1,0-5.4,0-7.9c0.7,0,0.2-0.2,0-0.9c0,0.5-0.5,0.5-0.5,0.5v6.3c0,0.9,0,2.6,0.5,3.7
		C536.7,97.7,536.2,97.2,536.2,96.8z"/>
</g>
<g class="st2">
	<path class="st3" d="M273.1,152.6v4.4c0,1.9,0,2.8,0.2,3s0.7,0.5,1.4,0.5h0.9v0.9c-1.6,0-3,0-4,0c-0.9,0-2.3,0-4,0v-0.9h0.9
		c0.7,0,1.2-0.2,1.4-0.5s0.2-1.4,0.2-3.3V147c0-1.9,0-2.8-0.2-3c-0.2-0.2-0.7-0.5-1.4-0.5h-0.9v-0.9c1.4,0,2.8,0,4,0l7.5-0.2
		c0.7,0,1.6,0,2.3,0.2c-0.2,0.9-0.5,2.3-0.5,4h-0.9c0-0.9-0.2-1.6-0.2-2.3c-1.2-0.2-2.3-0.5-3.7-0.5c-1.2,0-2.1,0-3,0.2
		c0,1.2-0.2,2.1-0.2,3v4.2c0.5,0,0.9,0,1.6,0c1.4,0,2.6,0,3.5,0c0.2,0,0.5,0,0.7-0.2c0.2-0.2,0.2-0.5,0.2-0.9l0.2-0.9h0.9
		c0,1.6,0,2.6,0,3v3h-0.9v-0.9c0-0.7-0.2-1.4-0.5-1.4s-1.4-0.2-3.5-0.2C274.5,152.6,273.8,152.6,273.1,152.6z"/>
	<path class="st3" d="M283.4,155.2c0-1.2,0.2-2.3,0.9-3.3c0.5-0.9,1.4-1.6,2.3-2.3c0.9-0.5,2.1-0.9,3.5-0.9c1.9,0,3.3,0.5,4.4,1.6
		c1.2,1.2,1.6,2.6,1.6,4.4c0,2.1-0.7,4-2.1,5.1c-1.4,1.2-2.8,1.6-4.7,1.6c-1.6,0-3.3-0.7-4.2-1.9C283.8,159,283.4,157.3,283.4,155.2
		z M285.9,154.3c0,1.9,0.5,3.3,1.2,4.7c0.7,1.2,1.9,1.9,3.3,1.9c1.2,0,1.9-0.5,2.6-1.2c0.7-0.7,0.9-2.1,0.9-3.7
		c0-1.4-0.2-2.6-0.5-3.5c-0.5-0.9-0.9-1.6-1.6-2.1c-0.7-0.5-1.4-0.7-2.1-0.7s-1.4,0.2-1.9,0.5c-0.5,0.2-0.9,0.7-1.2,1.4
		C285.9,152.4,285.9,153.3,285.9,154.3z"/>
	<path class="st3" d="M298.1,155.2c0-1.2,0.2-2.3,0.9-3.3c0.5-0.9,1.4-1.6,2.3-2.3c0.9-0.5,2.1-0.9,3.5-0.9c1.9,0,3.3,0.5,4.4,1.6
		c1.2,1.2,1.6,2.6,1.6,4.4c0,2.1-0.7,4-2.1,5.1s-2.8,1.6-4.7,1.6c-1.6,0-3.3-0.7-4.2-1.9C298.5,159,298.1,157.3,298.1,155.2z
		 M300.4,154.3c0,1.9,0.5,3.3,1.2,4.7c0.7,1.2,1.9,1.9,3.3,1.9c1.2,0,1.9-0.5,2.6-1.2c0.7-0.7,0.9-2.1,0.9-3.7
		c0-1.4-0.2-2.6-0.5-3.5c-0.5-0.9-0.9-1.6-1.6-2.1s-1.4-0.7-2.1-0.7s-1.4,0.2-1.9,0.5c-0.5,0.2-0.9,0.7-1.2,1.4
		C300.6,152.4,300.4,153.3,300.4,154.3z"/>
	<path class="st3" d="M322.9,149.6v-4.7c0-0.5,0-0.9-0.2-0.9c-0.2-0.2-0.5-0.2-0.9-0.2h-1.2v-0.7c1.6,0,3-0.5,4.4-0.9l0.2,0.2
		c0,0.9,0,1.9-0.2,3.3v3.5v1.2v7.9c0,1.4,0,2.3,0.2,2.3c0.2,0.2,0.5,0.5,1.2,0.5l0.9,0.2v0.7c-1.2,0-2.1-0.2-2.8-0.2
		c-0.2,0-0.7,0-1.6,0.2c0-0.7,0-1.4,0.2-2.6c-0.7,0.5-1.6,1.4-2.8,2.3c-0.7,0.2-1.4,0.5-1.9,0.5c-1.4,0-2.8-0.5-3.7-1.6
		c-0.9-1.2-1.4-2.6-1.4-4.4c0-1.2,0.2-2.1,0.5-3c0.5-0.9,0.9-1.4,1.4-1.9c0.5-0.5,1.4-0.9,2.6-1.4c0.9-0.5,1.6-0.7,2.3-0.7
		c0.5,0,0.9,0,1.6,0.2C321.9,149.1,322.4,149.4,322.9,149.6z M322.9,151.9c-0.7-0.7-1.2-1.2-1.9-1.4c-0.7-0.2-1.4-0.5-2.1-0.5
		c-1.2,0-2.1,0.5-2.8,1.2c-0.7,0.9-0.9,2.1-0.9,3.7c0,1.6,0.5,3,1.2,4c0.7,0.9,1.9,1.4,2.8,1.4c0.7,0,1.4-0.2,1.9-0.7
		c0.7-0.5,0.9-0.9,1.2-1.4c0.2-0.7,0.5-1.6,0.5-3L322.9,151.9L322.9,151.9z"/>
	<path class="st3" d="M347.4,143.8c-0.2,0.9-0.5,2.1-0.5,3.5h-0.7v-0.9c0-0.7,0-1.2-0.2-1.4c-0.2-0.2-0.7-0.5-1.4-0.7
		c-0.7-0.2-1.6-0.5-2.3-0.5c-1.4,0-2.6,0.5-3.3,1.2c-0.7,0.7-1.2,1.6-1.2,2.8c0,0.7,0.2,1.4,0.5,1.9c0.2,0.5,0.7,0.9,1.4,1.2
		c0.5,0.2,1.6,0.5,3.5,0.7c1.9,0.2,3,0.5,3.7,0.7s1.2,0.7,1.6,1.4c0.5,0.7,0.5,1.4,0.5,2.3c0,1.9-0.7,3.3-2.1,4.4
		c-1.4,1.2-3.5,1.9-5.8,1.9c-0.9,0-1.6,0-2.6-0.2c-0.9-0.2-1.6-0.5-2.6-0.7c0.2-0.9,0.2-2.3,0.2-4h0.9v0.7c0,0.9,0,1.4,0.2,1.6
		c0,0.2,0.2,0.5,0.7,0.7c0.5,0.2,1.2,0.7,1.6,0.7c0.7,0.2,1.4,0.2,2.1,0.2c1.6,0,3-0.5,3.7-1.2s1.4-1.9,1.4-3c0-0.7-0.2-1.4-0.5-1.9
		c-0.2-0.5-0.7-0.9-1.4-1.2c-0.5-0.2-1.6-0.5-3-0.5c-1.9-0.2-3.3-0.5-4-0.7c-0.7-0.2-1.2-0.7-1.6-1.4c-0.5-0.7-0.7-1.6-0.7-2.6
		c0-1.6,0.7-3,1.9-4.2c1.2-1.2,3-1.6,5.1-1.6c0.9,0,1.6,0,2.6,0.2C345.8,143.1,346.7,143.3,347.4,143.8z"/>
	<path class="st3" d="M350,155.2c0-1.2,0.2-2.3,0.9-3.3c0.5-0.9,1.4-1.6,2.3-2.3c0.9-0.5,2.1-0.9,3.5-0.9c1.9,0,3.3,0.5,4.4,1.6
		c1.2,1.2,1.6,2.6,1.6,4.4c0,2.1-0.7,4-2.1,5.1s-2.8,1.6-4.7,1.6c-1.6,0-3.3-0.7-4.2-1.9C350.4,159,350,157.3,350,155.2z
		 M352.3,154.3c0,1.9,0.5,3.3,1.2,4.7c0.7,1.2,1.9,1.9,3.3,1.9c1.2,0,1.9-0.5,2.6-1.2c0.7-0.7,0.9-2.1,0.9-3.7
		c0-1.4-0.2-2.6-0.5-3.5c-0.5-0.9-0.9-1.6-1.6-2.1s-1.4-0.7-2.1-0.7s-1.4,0.2-1.9,0.5c-0.5,0.2-0.9,0.7-1.2,1.4
		C352.5,152.4,352.3,153.3,352.3,154.3z"/>
	<path class="st3" d="M368.9,142.1c-0.2,2.6-0.2,4.9-0.2,7v6.8c0,2.6,0,4.2,0.2,4.4c0,0.2,0.2,0.2,0.9,0.5l1.2,0.2v0.7
		c-0.9,0-1.9,0-2.8,0s-2.3,0-3.7,0v-0.7h1.2c0.5,0,0.7-0.2,0.9-0.5c0-0.2,0.2-1.9,0.2-4.7v-6.8v-2.6v-1.6c0-0.5,0-0.7-0.2-0.7
		c-0.2-0.2-0.5-0.2-0.9-0.2h-1.2v-0.7C366.1,142.8,367.5,142.4,368.9,142.1L368.9,142.1z"/>
	<path class="st3" d="M382.5,161.5l0.2-2.3l-0.7,0.9c-0.7,0.7-1.2,1.2-1.9,1.4c-0.7,0.2-1.4,0.5-2.3,0.5c-0.7,0-1.4-0.2-2.1-0.5
		c-0.5-0.2-0.9-0.7-1.2-1.4c-0.2-0.7-0.5-1.4-0.5-2.6c0-0.7,0-1.2,0-2.1v-2.1c0-1.4,0-2.3-0.2-2.6c0-0.2-0.5-0.2-0.9-0.2h-0.9v-0.7
		c1.2,0,2.3-0.2,3.3-0.7l1.2-0.5c0.2,0,0.2,0,0.2,0.2v1.4c-0.2,1.9-0.2,3.5-0.2,5.1s0,2.6,0.2,3s0.5,0.7,0.9,1.2
		c0.5,0.2,0.9,0.5,1.6,0.5c0.7,0,1.6-0.2,2.3-0.7c0.7-0.5,1.2-1.2,1.4-1.6c0-0.2,0.2-1.2,0.2-2.8c0-2.6,0-4-0.2-4.2
		c0-0.2-0.5-0.2-1.2-0.2h-0.9v-0.7c0.9,0,1.6-0.2,2.3-0.5c0.7-0.2,1.4-0.5,2.1-0.7h0.2c0.2,0,0.2,0,0.2,0.2v1.2
		c-0.2,3-0.2,5.6-0.2,7.9c0,1.2,0,2.1,0.2,2.1c0.2,0.2,0.7,0.5,1.2,0.5h0.7v0.7c-1.2,0-2.1,0-2.8,0
		C383.6,161.5,383.2,161.5,382.5,161.5z"/>
	<path class="st3" d="M392.5,151.2v5.1c0,1.4,0,2.1,0.2,2.6c0,0.5,0.2,0.7,0.5,0.9c0.2,0.2,0.7,0.2,0.9,0.2c0.2,0,0.5,0,0.7-0.2
		c0.2,0,0.5-0.2,0.7-0.5l0.5,0.5l-1.2,1.4c-0.2,0-0.5,0.2-0.7,0.2c-0.2,0-0.5,0-0.7,0c-0.7,0-1.2,0-1.6-0.2
		c-0.5-0.2-0.7-0.5-0.9-0.9c-0.2-0.5-0.2-0.9-0.2-1.6v-2.6v-4.9c-0.7,0-1.4,0-2.1,0v-0.5c0.7-0.2,1.4-0.7,2.1-0.9c0-1.2,0-2.6,0-4
		c0.9-0.5,1.9-0.7,2.1-0.9l0.2,0.2c0,0.7-0.2,2.3-0.2,4.9c1.2,0,1.9,0,2.6,0h0.9l-0.2,1.4h-0.5H393h-0.5V151.2z"/>
	<path class="st3" d="M401.4,148.9l0.2,0.2c0,0.7,0,1.4,0,2.1c0,2.6,0,4.4,0,5.6c0,1.2,0,2.1,0.2,2.8c0,0.2,0.2,0.5,0.2,0.7
		c0.2,0.2,0.5,0.2,0.9,0.2l0.9,0.2v0.7c-1.2,0-2.3,0-3.5,0c-0.9,0-2.1,0-3,0v-0.7l1.2-0.2c0.5,0,0.7,0,0.7-0.2
		c0-0.2,0.2-0.5,0.2-1.2c0-1.2,0-2.6,0-4.7c0-1.4,0-2.3,0-3c0-0.2,0-0.5-0.2-0.5s-0.5-0.2-0.9-0.2h-0.9v-0.7
		c1.2-0.2,1.9-0.2,2.3-0.5C400,149.4,400.7,149.1,401.4,148.9z M400.5,143.1c0.5,0,0.7,0.2,0.9,0.5c0.2,0.2,0.5,0.7,0.5,1.2
		s-0.2,0.7-0.5,0.9c-0.2,0.2-0.7,0.5-0.9,0.5c-0.5,0-0.7-0.2-0.9-0.5s-0.5-0.7-0.5-0.9s0.2-0.7,0.5-1.2
		C399.5,143.1,400,143.1,400.5,143.1z"/>
	<path class="st3" d="M405.1,155.2c0-1.2,0.2-2.3,0.9-3.3c0.5-0.9,1.4-1.6,2.3-2.3c0.9-0.5,2.1-0.9,3.5-0.9c1.9,0,3.3,0.5,4.4,1.6
		c1.2,1.2,1.6,2.6,1.6,4.4c0,2.1-0.7,4-2.1,5.1s-2.8,1.6-4.7,1.6c-1.6,0-3.3-0.7-4.2-1.9C405.8,159,405.1,157.3,405.1,155.2z
		 M407.7,154.3c0,1.9,0.5,3.3,1.2,4.7c0.7,1.2,1.9,1.9,3.3,1.9c1.2,0,1.9-0.5,2.6-1.2c0.7-0.7,0.9-2.1,0.9-3.7
		c0-1.4-0.2-2.6-0.5-3.5c-0.5-0.9-0.9-1.6-1.6-2.1s-1.4-0.7-2.1-0.7s-1.4,0.2-1.9,0.5c-0.5,0.2-0.9,0.7-1.2,1.4
		C407.9,152.4,407.7,153.3,407.7,154.3z"/>
	<path class="st3" d="M423.6,151.5l1.9-1.9c0.2-0.2,0.5-0.5,0.7-0.5c0.5-0.2,1.2-0.2,1.6-0.2c0.9,0,1.6,0.2,2.3,0.5
		c0.7,0.5,1.2,0.9,1.4,1.4c0.2,0.7,0.5,1.6,0.5,2.8v4.2c0,1.4,0,2.3,0.2,2.6c0.2,0.2,0.5,0.5,0.9,0.5h0.9v0.7c-0.9,0-1.6,0-2.3,0
		s-1.4,0-2.1,0c0.2-1.6,0.2-4,0.2-7c0-1.2,0-2.1-0.2-2.6c-0.2-0.5-0.5-0.9-0.9-1.2c-0.5-0.2-1.2-0.5-1.9-0.5c-0.9,0-1.6,0.2-2.1,0.7
		c-0.5,0.5-0.9,0.9-1.2,1.4c0,0.2-0.2,1.2-0.2,2.6c0,1.6,0,3,0,4.4c0,0.5,0,0.7,0.2,0.7c0.2,0.2,0.5,0.2,1.2,0.2h0.9v0.7
		c-1.4,0-2.6,0-3.5,0s-1.9,0-3.3,0v-0.7h0.9c0.7,0,0.9-0.2,1.2-0.5c0.2-0.2,0.2-2.1,0.2-5.4c0-1.4,0-2.6,0-3.5c0-0.2,0-0.5-0.2-0.5
		c-0.2,0-0.5-0.2-0.9-0.2h-0.9v-0.7c0.7,0,1.4-0.2,2.1-0.5c0.7-0.2,1.2-0.5,2.1-0.7h0.2c0.2,0,0.2,0,0.2,0.2v0.5L423.6,151.5z"/>
	<path class="st3" d="M436.7,157.6v0.9c0,0.7,0,1.2,0.2,1.2c0.2,0.2,0.7,0.5,1.4,0.7c0.7,0.2,1.4,0.5,2.1,0.5c0.9,0,1.6-0.2,2.1-0.7
		c0.5-0.5,0.9-1.2,0.9-1.6s-0.2-0.9-0.5-1.4c-0.2-0.2-0.9-0.7-1.9-0.7c-1.6-0.5-2.8-0.7-3.5-0.9c-0.5-0.2-0.9-0.7-1.2-0.9
		c-0.2-0.5-0.5-0.9-0.5-1.6c0-1.2,0.5-2.1,1.2-2.8c0.9-0.7,2.1-1.2,3.5-1.2c1.2,0,2.3,0.2,3.7,0.7c0,0.7-0.2,1.6-0.2,3h-0.7
		c0-0.7,0-1.2-0.2-1.6c-0.2-0.2-0.5-0.7-1.2-0.9c-0.5-0.2-1.2-0.5-1.6-0.5c-0.7,0-1.4,0.2-1.9,0.7c-0.5,0.5-0.7,0.9-0.7,1.6
		c0,0.7,0.2,0.9,0.5,1.4c0.5,0.2,1.4,0.7,3,0.9c1.2,0.2,2.1,0.5,2.6,0.7c0.5,0.2,0.7,0.5,0.9,0.9c0.2,0.5,0.5,0.9,0.5,1.6
		c0,1.2-0.5,2.1-1.4,3s-2.3,1.2-4,1.2c-1.2,0-2.3-0.2-3.5-0.5c-0.2,0-0.5-0.2-0.5-0.2v-0.2c0-0.2,0-0.5,0-0.7c0-0.9,0.2-1.4,0.2-2.1
		v-0.7h0.5L436.7,157.6L436.7,157.6z"/>
	<path class="st3" d="M451.2,157.8l0.5,0.5c-0.5,1.2-0.9,2.3-1.6,3.3c-0.5,0.9-1.4,2.1-2.3,3.3l-1.2,0.5l-0.5-0.5
		c0.7-1.2,1.4-2.3,1.6-3.3c0.5-0.9,0.7-1.9,0.7-3C449.5,158.5,450.5,158.3,451.2,157.8z"/>
	<path class="st3" d="M465.2,160.4c0.9,0,1.6,0,2.6,0c1.6,0,3,0,4-0.2c0.7,0,1.4-0.2,2.1-0.5l0.7-3h0.9c-0.2,1.6-0.5,3.3-0.5,4.7
		c-0.7,0.2-1.9,0.2-3.3,0.2h-6.3c-0.9,0-2.1,0-4,0.2v-0.7c0.7-0.2,1.2-0.7,1.2-0.9c0.2-0.2,0.2-1.6,0.2-4.2v-7.2c0-2.6,0-4-0.2-4.4
		c-0.2-0.2-0.5-0.5-1.2-0.5h-1.4v-0.9c2.1,0,3.5,0,4.2,0c0.9,0,2.1,0,3.7,0v0.9h-1.6c-0.5,0-0.7,0.2-0.9,0.5
		c-0.2,0.2-0.2,1.4-0.2,3.3v8.4v3.7L465.2,160.4z"/>
	<path class="st3" d="M481.8,160.4c0.9,0,1.6,0,2.6,0c1.6,0,3,0,4-0.2c0.7,0,1.4-0.2,2.1-0.5l0.7-3h0.9c-0.2,1.6-0.5,3.3-0.5,4.7
		c-0.7,0.2-1.9,0.2-3.3,0.2H482c-0.9,0-2.1,0-4,0.2v-0.7c0.7-0.2,1.2-0.7,1.2-0.9c0.2-0.2,0.2-1.6,0.2-4.2v-7.2c0-2.6,0-4-0.2-4.4
		c-0.2-0.2-0.5-0.5-1.2-0.5h-1.4v-0.9c2.1,0,3.5,0,4.2,0c0.9,0,2.1,0,3.7,0v0.9H483c-0.5,0-0.7,0.2-0.9,0.5s-0.2,1.4-0.2,3.3v8.4
		v3.7L481.8,160.4z"/>
	<path class="st3" d="M509.1,147.5v-2.3c-0.7-0.5-1.6-0.9-2.3-1.2c-0.9-0.2-1.6-0.5-2.6-0.5c-2.3,0-4.2,0.7-5.6,2.1
		c-1.4,1.4-2.1,3.3-2.1,5.8c0,1.6,0.5,3.3,1.2,4.4c0.7,1.4,1.6,2.3,3,3s2.8,1.2,4.2,1.2c1.2,0,2.3-0.2,3.5-0.5
		c0.9-0.2,1.6-0.7,2.6-1.2l0.2,0.2c-0.2,0.5-0.5,0.7-0.5,1.2c-0.9,0.5-2.1,0.9-3,1.2c-0.9,0.2-2.1,0.5-3,0.5c-2.1,0-4-0.5-5.6-1.2
		s-2.8-1.9-3.7-3.5c-0.9-1.4-1.4-3-1.4-4.9s0.5-3.5,1.4-4.9c0.9-1.4,2.1-2.6,3.7-3.3c1.6-0.7,3.5-1.2,5.8-1.2c1.2,0,2.6,0.2,4.4,0.7
		c0.9,0.2,1.4,0.2,2.1,0.5c-0.5,0.9-0.7,2.3-0.7,4L509.1,147.5L509.1,147.5z"/>
</g>
<line class="st4" x1="224.7" y1="128.6" x2="556.6" y2="128.6"/>
</svg>
