<?xml version="1.0" encoding="utf-8"?>
<!-- Generator: Adobe Illustrator 23.0.1, SVG Export Plug-In . SVG Version: 6.00 Build 0)  -->
<svg version="1.1" id="Layer_1" xmlns="http://www.w3.org/2000/svg" xmlns:xlink="http://www.w3.org/1999/xlink" x="0px" y="0px"
	 viewBox="0 0 247 85" style="enable-background:new 0 0 247 85;" xml:space="preserve">
<style type="text/css">
	.st0{fill:#96DAEA;}
	.st1{fill:#45A041;}
	.st2{enable-background:new    ;}
	.st3{fill:#939598;}
	.st4{fill:none;stroke:#939598;stroke-width:0.75;stroke-miterlimit:10;}
</style>
<g>
	<circle class="st0" cx="45.9" cy="42.4" r="38.7"/>
	<g>
		<path class="st1" d="M22.7,42.7c-0.2,0-0.4,0-0.6,0C22.2,43.3,22.4,43.3,22.7,42.7z"/>
		<path class="st1" d="M22.3,47.7c0.1,0,0.2,0,0.3-0.1c0.2-0.1,0.2-0.2,0.2-0.3c-0.3,0-0.5,0-0.8,0C22.2,47.4,22.3,47.5,22.3,47.7z"
			/>
		<path class="st1" d="M23.8,46c-0.5-0.1-1-0.3-1.4-0.6c-0.4-0.2-0.8-0.4-1.2-0.7c-0.9,0-1.5,0.2-1.8,0.7c0.7-0.2,1.3-0.2,1.8,0
			c0.2,0.1,0.4,0.3,0.7,0.6c0.3,0.3,0.5,0.4,0.6,0.4c0.4,0,0.9,0,1.3,0C23.8,46.5,23.8,46.2,23.8,46z"/>
		<path class="st1" d="M41.4,57.3c0.1,0.1,0.2,0.3,0.2,0.4c0.1,0,0.3,0,0.4,0c-0.1-0.1-0.2-0.3-0.2-0.4
			C41.7,57.3,41.5,57.3,41.4,57.3z"/>
		<path class="st1" d="M26.2,47.2c0-0.5-0.4-0.8-1.2-0.8c-0.9,0-1.3,0.3-1.3,0.8c0.3,0.2,0.7,0.2,1.2,0.2
			C24.9,47.3,25.3,47.2,26.2,47.2z"/>
		<path class="st1" d="M22.4,44.7c0-0.3,0-0.7,0-1c-0.1,0.1-0.1,0.1-0.2,0.2C22.2,44.2,22.3,44.4,22.4,44.7z"/>
		<path class="st1" d="M22.7,43.7c0.3,0.4,0.6,0.9,0.9,1.3c0-0.3-0.1-0.5-0.1-0.8C23.4,44.2,23.1,44,22.7,43.7z"/>
		<path class="st1" d="M26.5,47.4c0.4-0.1,0.7-0.1,1.1-0.2c-0.1-0.1-0.2-0.2-0.3-0.3C27.1,46.9,26.8,47.1,26.5,47.4z"/>
		<path class="st1" d="M33.5,6.6c0.1,0,0.2-0.1,0.3-0.1c0,0.1,0,0.2,0,0.3c-0.2,0.2-0.4,0.4-0.6,0.5c0,0.2,0.1,0.4,0.3,0.3
			c0.2-0.1,0.4-0.1,0.6-0.3c0.4-0.5,0.5-0.2,0.2-0.8c-0.1,0-0.3,0-0.4,0c0.1,0,0.1-0.6,0-0.9c-0.4,0.1-0.8,0.3-1.2,0.4
			c0.1,0.3-0.1,0.8-0.3,1.5C32.9,7.5,33.3,7.2,33.5,6.6z"/>
		<path class="st1" d="M56.3,10.3c0.1,0,0.3,0,0.4,0c0.2,0,0.1,0.1-0.1,0.6c0.1,0.1,0.3,0.1,0.7,0.3c0.2-0.4,0.3-0.9,0.6-1.3
			c0.3,0.7,0.6,0.8,1,0.4c-0.2-0.3-0.5-0.6-0.7-1c0-0.1-0.1-0.3-0.1-0.4c0.2-0.2,0.6-0.4,1.1-0.8c0-0.3-0.1-0.5-0.4-0.7
			c-0.2,0-0.5,0-0.7-0.1c-0.1,0.1-0.3,0.3-0.4,0.4c-0.1,0-0.2,0-0.2,0c-0.1,0-0.1,0.2-0.2,0.4c-0.1,0.2-0.2,0.5-0.3,0.5
			c-0.3,0-0.6,0-0.9,0c-0.2,0.6-0.2,0.5,0,0.9C56.2,9.8,56.3,10.3,56.3,10.3z"/>
		<path class="st1" d="M32.7,9.1c-0.5,0.8-0.8,1.3-0.7,1.5c0.5,0.6,1.1,0.9,1.7,0.9c0.6,0,0.9-0.3,1.1-1c0.1-0.3,0-0.5-0.4-0.5
			s-0.7-0.1-0.9-0.1s-0.2-0.3,0-0.9C33.4,8.9,33.2,8.9,32.7,9.1z"/>
		<path class="st1" d="M38.7,56.5c-0.2-0.1-0.5-0.2-1-0.2s-0.8,0-1-0.1c-0.4-0.4-1.2-0.7-2.5-1.2c-0.1-0.3-0.1-0.6-0.2-1
			c-0.8-0.9-1.4-1.4-1.7-1.4c-0.5,0-1-0.1-1.3-0.3c-0.3-0.2-0.8-0.6-1.4-1.3c-0.1-0.1-0.1-0.3-0.1-0.5s-0.1-0.3-0.3-0.4
			c0,0.1,0,0.3-0.1,0.5c-0.3,0-0.8,0.2-1.3,0.2c-0.4,0-0.8,0-1.2,0c-0.1-0.6-0.2-0.4-0.2-0.5c-0.9-0.2-1.5-0.4-1.7-0.6
			c-0.2,0.5-0.7,1.1-1.5,1.6c-0.1,0-0.4-0.1-0.8-0.2c-0.3-0.1-0.8,0-1.4,0.2c-0.5-0.2-0.8-0.6-0.8-1s0-1,0-1.7
			c-0.1-0.1-0.2-0.3-0.3-0.3c-0.5,0-0.9,0-1.4,0c-0.6,0-0.7-0.5-0.4-1c0.3-0.2,0.5-0.4,0.4-0.9c0.1-0.5,0.1-0.8,0-0.9
			c-0.3,0.1-0.5,0.1-0.6,0.2c-0.1,0-0.3,0.1-0.4,0.1c-0.2,0-0.3,0.2-0.4,0.6c-0.1,0.4-0.2,0.6-0.3,0.7c-0.4,0.2-0.8,0.1-1.3,0
			s-0.8-0.3-0.9-0.6c-0.1-0.3-0.2-0.5-0.4-0.8c0-0.2,0-0.4,0-0.7c0-0.5,0.1-1.4,0.5-2.5c0.3-0.6,0.8-0.9,1.5-0.9
			c0.3,0,0.9,0.1,1.7,0.2c0-0.6,0.4-0.9,1.3-0.9c0.2,0.2,0.4,0.4,0.5,0.4c0.1,0.1,0.3,0.1,0.5,0.2c0.2,0.5,0.3,1,0.5,1.4
			c0.2,0.3,0.4,0.5,0.6,0.8c0.2,0.1,0.3,0.1,0.4-0.1c0-0.1,0-0.2,0-0.4c0-0.6-0.2-1.2-0.6-1.9c-0.1-0.2-0.1-0.5,0.2-0.9
			s0.6-0.7,0.9-0.9c0.3-0.2,0.8-0.5,1.3-0.9c0.1-0.2,0.2-0.6,0.2-1.1c0.2-0.4,0.5-0.9,0.8-1.4s0.6-1,1-1c0.2,0,0.5,0,0.7,0
			c0.1,0,0.2-0.7,0.4-1s0.4-0.6,0.7-0.8c0.7,0,1.1,0.1,1.3,0.4c0.1,0.1,0.4-0.1,0.7-0.4c0.5-0.1,1-0.3,1.4-0.4
			c0.1-0.1,0.2-0.3,0.1-0.8c-0.3-0.1-0.6-0.3-0.8-0.4c-0.3-0.1-0.4-0.3-0.5-0.4c0.1-0.1,0.3-0.2,0.4-0.3c-0.1-0.1-0.2-0.2-0.3-0.3
			c-0.3-0.1-0.5-0.2-0.6-0.3c0.2-0.4,0.5-0.4,1-0.3c0.5,0.2,0.8,0.3,0.9,0.3c0.7-0.4,1.4-0.7,2.1-1.1c0,0.1,0,0.1,0.1,0.2
			c0,0.1,0,0.1,0,0.2c-0.5,0.6-1.1,1.3-1.6,1.8c0.2,0.1,0.4,0.1,0.7,0.1s0.5,0.1,0.6,0.3c0,0.1-0.1,0.2-0.1,0.3
			c0.3-0.1,0.6-0.2,0.7-0.1c0,0.1,0,0.2,0.1,0.3c0-0.2,0.2-0.4,0.5-0.5c0-0.4,0-0.9,0-1.3c-0.4,0-0.6-0.1-0.8-0.2
			c0-0.5,0-1.2,0.1-2.2c-0.3-0.5-0.3-0.9-0.1-1.3c-0.7-0.1-1-0.8-0.9-1.9s0.1-1.8,0-2c-0.1,0-0.3,0.2-0.4,0.7
			c-0.5,0.7-1,0.9-1.5,0.7c-0.3-0.2-0.1-0.8,0.6-1.7c-0.1-0.1-0.2-0.3-0.3-0.4c-0.1,0-0.3,0.1-0.4,0.1c-0.1-0.1-0.2-0.3-0.3-0.8
			c-0.3-0.1-0.6-0.2-0.9-0.3c-0.3-0.1-0.5-0.1-0.6,0.2c-0.2,0.6-0.4,1.2-0.5,1.8c-0.2,0.1-0.4,0.3-0.8,0.6c0,0.2-0.1,0.3-0.1,0.5
			c0.5,0.3,0.5,0.6,0.3,1.1c-0.6,0.5-1.2,1-1.7,1.4c0,0.1-0.1,0.5-0.3,1s-0.3,0.8-0.5,0.8c-0.3,0-0.4-0.3-0.3-0.9
			c0.1-0.8,0.2-1.2,0.1-1.3c-0.5-0.5-0.9-1.1-1.4-1.6c-0.2-0.2-0.5-0.4-0.8-0.5c0-0.2,0.1-0.3,0.1-0.5s0-0.5,0-0.7
			c0.3-0.5,0.6-1,0.8-1.5c0.4-0.4,1-0.8,1.7-1.2c0.1-0.2,0.2-0.3,0.3-0.5c0.1-0.1,0.4-0.3,1-0.8c0.5-0.4,1.2-0.7,1.2-0.8
			c0,0.1,0,0.2,0,0.3c-0.6,0.6-0.7,1.9-0.8,1.9c0.1,0,0.2,0,0.4,0c0.3,0,0.5-0.5,0.8-0.3s0.5,0.1,0.7,0.1c0-0.1-0.1-0.1-0.1-0.2
			c0.1-0.1,0.2-0.2,0.3-0.3c-0.1-0.1-0.3-0.2-0.7-0.5c0-0.1,0-0.1-0.2-0.4c-0.1-0.2-0.1-0.3,0.1-0.3c0.4,0,0.7,0,1.2,0
			c0.2,0,0.4-1,0.7-1.9c0.1-0.1,0.3-0.6,0.4-0.7c0.1-0.3,0.2-0.5,0.2-0.8c0-0.1,0.1-0.1,0.2-0.2c0.1-0.1,0.3-0.1,0.4,0
			c0,0.1,0.1,0.1,0.1,0.2c0.2,0.1,0.4,0.1,0.6,0c-0.1,0.1-0.1,0.2-0.2,0.3c0.1,0.3,0.3,0.7,0.5,1s0.1,0.7-0.1,1.1
			c-0.3,0.3-0.6,0.5-0.8,0.8c-0.1,0.1-0.3,0.4-0.7,0.9c-0.1-0.1-0.2-0.3-0.3-0.4c-0.4,0.1-0.6,0.1-0.7,0.2c0,0.2-0.1,0.3-0.1,0.5
			c0.2,0.5,0.5,0.5,1,0c-0.1,0.3,0.1,0.6,0.4,0.9c0.2,0.1,0.3,0.3,0.5,0.6c0.2,0.3,0.4,0.6,0.5,0.6c0.1-0.1,0.2-0.1,0.2-0.2
			c0.7-0.2,1-0.6,1.2-1.1c-0.1-0.2-0.2-0.6-0.4-1.3c0.2,0,0.3,0,0.5-0.1c0.1,0,0.1,0.2,0.2,0.5c0.1,0.3,0.2,0.4,0.4,0.3
			c0.3-0.3,0.6-0.6,1.1-1.2c-0.1,0-0.2,0-0.4,0s-0.2-1,0-1.3c-0.3,0.2-0.5-0.1-0.5-0.7c0.1-0.1,0.3-0.2,0.4-0.3
			c0.2-0.7,0.2-1.2,0-1.6c-0.1,0-0.3,0.1-0.4,0.1c-0.2-0.2-0.2-0.5,0-0.8c-0.3,0-0.6-0.1-0.7-0.4c0.3-1,0.3-1.6,0-1.9
			s-0.7-0.3-1.3-0.1c0-0.1,0.1-0.3,0.1-0.4c-0.4-0.2-0.8-0.1-1.4,0.4c-0.2,0.2-0.7,0.6-1.3,1.1c0,0.1,0,0.2,0,0.3
			c0,0.1-0.1,0.3,0,0.6c-0.1,0.1-0.2,0.1-0.3,0.2c-0.1,0.2-0.1,0.3-0.2,0.5c0.4-0.1,0.6,0.1,0.7,0.4c-0.1,0.1-0.2,0.2-0.3,0.3
			c-0.1,0.1-0.2,0.2-0.3,0.4c-0.1,0.2-0.3,0.4-0.6,0.6c-0.3,0.3-0.5,0.3-0.6,0.2c0.3-0.5,0.4-0.9,0.3-1c0-0.1-0.2-0.1-0.4-0.2
			s-0.2-0.2-0.1-0.4c0.2-0.1,0.3-0.3,0.5-0.4c0.1-0.3,0.3-0.9,0.6-1.7c0.3-0.6,0.6-0.9,0.9-0.9c0.3,0,0.5-0.1,0.7-0.2
			s0.4-0.3,0.6-0.6c-0.4,0-0.8-0.1-1.3-0.3c-0.1,0-0.1,0-0.2,0c-0.1-0.1-0.1,0.5-0.1-0.1c-0.1,0-0.3,0-0.4,0c-0.9,1.2-1.3,1.4-1.4,2
			c-0.1,0.1-0.3,0.1-0.4,0.2c-0.2,0.7-0.3,1.2-0.4,1.3c-0.3,0.3-0.7,0.6-1.3,1.1c-0.1,0.1-0.2,0.3-0.3,0.4c-0.1,0.2-0.3,0.4-0.6,0.6
			c-0.6,0-1.1-0.3-1.3-0.9c0-0.1,0.2-0.3,0.5-0.5c0.3,0.1,0.6,0.3,0.9,0.4c0.1-0.2,0.2-0.3,0.4-0.3c0.1,0,0.3,0,0.4,0c0,0,0-1,0-1.4
			c0.6-0.8,1.2-1.9,1.8-2.8c0.2-0.2,0.2-0.3,0.2-0.5c-0.1-0.1-0.2-0.2-0.5,0c-0.5,0.3-1,0.7-1.5,1c-0.1,0.1-0.3,0-0.5-0.3
			c0.1-0.1,0.3-0.2,0.4-0.3c-0.3-0.1-0.5-0.2-0.4-0.3s0.3-0.3,0.7-0.8c-0.2-0.2-0.4-0.3-0.7-0.3c-0.9,0.6-1.8,1.2-2.7,1.9
			c0.2,0,0.3,0.2,0.4,0.5c-0.3,0.2-0.4,0.6-0.2,0.9c-0.1,0.1-0.2,0.1-0.3,0.2c-0.4,0.1-0.6,0.3-0.6,0.4c0,0.3,0,0.6,0.2,1
			c-0.1,0.1-0.2,0.1-0.3,0.2c-0.5,0-0.8-0.3-1.1-0.9c-0.1-0.2-0.2-0.4-0.2-0.6C12.6,19.4,7.5,29.1,7,40c0,0.2,0.1,0.3,0.1,0.5
			c0.1,0.7,0.3,1.1,0.6,1.2c-0.1,0-0.2,0.2-0.2,0.7c0.2,0.1,0.4,0.5,0.7,1.1c0.3,0.5,0.6,0.9,0.9,1.2c0.1-0.1,0.2-0.1,0.3-0.2
			c-0.1,0-0.3-0.2-0.4-0.5c-0.1-0.4-0.3-0.9-0.7-1.5C8,41.8,7.9,41.3,7.9,41c0.4,0.4,0.8,1.2,1.4,2.2c0.5,1,1,1.7,1.4,2.2
			c0.1,0.2,0.2,0.7,0.3,1.4c0.7,0.5,1.3,0.9,1.9,1.1c0.6,0.2,1.4,0.4,2.6,0.7c0.8,0.3,1.5,0.6,2.3,0.9c0.3,0.1,0.6,0.4,1,1
			s0.8,0.9,1.2,1c0.9,0.5,1.4,0.8,1.7,0.9c0-0.2,0.1-0.4,0.1-0.7c0.7,0.4,1.1,0.9,1.2,1.7c0.1,0.4-0.1,0.8-0.4,1.3
			c-0.3,0.5-0.5,0.8-0.6,0.9c0.2,0.6,0.3,1.1,0.5,1.6c-0.2,0.6-0.3,1-0.2,1.2c0.3,0.3,0.7,0.7,1.2,1.2c0.3,0.6,0.6,1,1,1.4
			s0.8,0.7,1.1,1c0.1,0.1,0.5,0.3,1.2,0.7c0.7,0.4,1.2,0.9,1.5,1.4s0.5,1.1,0.7,1.8c0.1,0.7,0.3,1.3,0.5,2c0.2,0.6,0.4,1.2,0.6,1.5
			c0.2,0.3,0.4,0.6,0.6,0.9c0,0.3,0.1,0.6,0.1,0.9c-0.1,0.2-0.1,0.4,0,0.7c0.1,0.4,0.3,0.6,0.6,0.8c0.1,0.3,0.3,0.6,0.4,0.9
			c0,0.1-0.1,0.2-0.1,0.4c0.2,0.5,0.3,0.9,0.4,1c0.2,0.1,0.4,0.2,0.5,0.3c0.2,0.1,0.3,0.2,0.3,0.4c0,0.1-0.1,0.1-0.1,0.1
			c-0.1,0.2,0,0.5,0.1,0.7c0.2,0.1,0.3,0.3,0.5,0.4c0.1,0.3,0.3,0.6,0.4,0.9c0.2,0.1,0.4,0.2,0.5,0.3c0.2,0.5,0.6,1,1.1,1.4
			c0.9,0.2,1.7,0.5,2.6,0.6c0-0.1,0.1-0.1,0.1-0.1c-0.2,0-0.3,0-0.5,0c-0.3,0-0.6-0.4-0.8-0.7c-0.2-0.3-0.5-0.6-0.7-1
			c-0.1-0.5-0.2-1.1-0.3-1.7c-0.2-0.2-0.5-0.3-0.7-0.5c-0.1-0.2-0.1-0.4,0-0.7c0.2-0.3,0.1-0.6-0.1-0.9c0,0,0.1,0,0.3-0.1
			c0.1-0.1,0.1-0.2-0.1-0.4c-0.2-0.1-0.4-0.2-0.7-0.3c0-0.1,0-0.2,0-0.4c0.1-0.1,0.3-0.1,0.6,0c-0.2-0.6-0.3-0.9-0.2-0.9
			c0.2,0,0.4,0,0.6,0c0.5-0.6,0.6-0.9,0.3-1.3c-0.1-0.2-0.2-0.4-0.2-0.6c0.5-0.3,0.9-0.5,1.1-0.8c-0.2-0.4-0.2-0.7-0.2-0.9
			c0.1,0,0.2-0.1,0.3-0.1c0.1-0.5,0.2-1.1,0.4-2c-0.1-0.1-0.2-0.2-0.3-0.3c0-0.7,0.2-1,0.6-1c0.2-0.1,0.4-0.4,0.8-0.7
			c0.4,0,0.7-0.1,1.1-0.1c0.1-0.3,0.2-1.6,0.3-3.9c0-1,0.2-1.8,0.6-2.3c0.2-0.3,0.2-0.6,0-1C40.2,57.4,39.6,57,38.7,56.5z
			 M22.1,32.2c0.2,0,0.3,0.1,0.5,0.1c0.1,0.1,0.2,0.1,0.4,0.2c-0.1,0.1-0.2,0.1-0.3,0.2c0,0.2,0,0.4-0.1,0.5s-0.3,0.3-0.4,0.4
			c0-0.2-0.1-0.4-0.1-0.5s0-0.3-0.1-0.4c0-0.1,0-0.3,0-0.4C22,32.3,22.1,32.3,22.1,32.2z M20.7,33.5c0,0.3-0.1,0.6-0.1,0.9
			c-0.2,0.1-0.4,0.3-0.5,0.4c0.1-0.8,0.2-1.2,0.4-1.4c0.1-0.1,0.2,0,0.3,0s0.2,0,0.3,0C21,33.4,20.9,33.4,20.7,33.5z M21.1,33.3
			C21.2,33.3,21.2,33.3,21.1,33.3c0.1-0.1,0.2,0,0.4,0C21.4,33.3,21.3,33.3,21.1,33.3z M19.8,31.5c0.1,0,0.3,0,0.4,0
			c0.1-0.1,0.1,0,0.1-0.1c0.1-0.1,0.1,0,0.2,0.1c0.1,0,0.1,0,0.2,0c0.1,0,0.2,0,0.3,0c0.2,0,0.3-0.4,0.5-0.3c0.1,0.2,0.1,0,0.2,0.2
			c-0.2,0.1-0.3,0.3-0.5,0.4c-0.2-0.1-0.3-0.1-0.5-0.2c0,0,0-0.1-0.1-0.1h-0.1h-0.1c-0.1,0-0.2,0.1-0.3,0.2
			c-0.2,0.1-0.3,0.2-0.4,0.2C19.8,31.7,19.8,31.6,19.8,31.5z M17.8,16c0.1-0.1,0.3-0.1,0.4-0.2c0,0.1,0.1,0.1,0.1,0.2
			c0.1,0.1,0.2,0.3,0.3,0.4c0,0.1,0.1,0.1,0.1,0.1c0,0.1,0,0.2-0.1,0.3l0,0c-0.2,0-0.4,0-0.5,0s-0.2,0-0.4,0
			c0.1-0.2,0.1-0.4,0.2-0.6C17.8,16.1,17.8,16.1,17.8,16z"/>
		<path class="st1" d="M28.7,48.1c0.1,0.2,0.3,0.4,0.4,0.6c0-0.3,0-0.6-0.1-0.9C29,47.8,28.9,47.9,28.7,48.1z"/>
		<path class="st1" d="M27.2,9.6c0.2,0.1,0.9,0,2.1-0.3c0.1,0,0.2-0.1,0.4-0.2C29.9,9,30,8.8,30,8.5c0.1,0,0.2-0.1,0.3-0.1
			c0.1,0.1,0.1,0.4,0.1,0.8c0,0.4,0.1,0.6,0.2,0.6c0.2,0.1,0.3,0.2,0.4,0.4c0,0.2,0.1,0.3,0.2,0.4c0.3-0.1,0.4-0.2,0.4-0.5
			s-0.1-0.5-0.2-0.8c0.1-0.1,0.2-0.3,0.4-0.6s0.3-0.5,0.3-0.6S31.9,8,31.6,8s-0.5,0-0.5,0c0-0.1,0-0.2,0-0.4
			c-0.2,0.3-0.5,0.5-0.8,0.6s-0.5,0.1-0.5-0.1c0.1-0.2,0.2-0.5,0.3-0.7c-0.1-0.1-0.4,0-0.7,0.3s-0.5,0.5-0.6,0.5
			c0.1-0.3,0.1-0.5,0-0.6c-0.7,0.3-1.3,0.7-2,1.1C26.7,9.2,26.9,9.5,27.2,9.6z"/>
		<path class="st1" d="M38.7,78.7c0.5-0.1,0.7-0.2,0.7-0.4c-0.2,0-0.3-0.1-0.5-0.1C38.6,78.2,38.5,78.4,38.7,78.7z"/>
		<path class="st1" d="M71.4,61.4c-0.2,0-0.3,0-0.5,0c-0.3,0.6-0.5,1.2-0.7,1.8c-0.6,0.5-0.5,0.9,0.1,1.5c0.1,0.2,0.3,0.3,0.6,0.2
			c0.3-0.1,0.5-0.2,0.6-0.5s0.3-0.7,0.5-1.2c0.2-0.5,0.3-0.9,0.4-1.1c0.4-0.8,0.6-1.7,0.7-3c-0.1,0.1-0.4,0.6-0.7,1.1
			C72,60.7,71.6,60.8,71.4,61.4z"/>
		<path class="st1" d="M56.5,34.6c-0.1,0.1-0.2,0.3-0.3,0.4c0,0.4,0.1,0.7,0.2,0.9c0.1,0.1,0.3,0.2,0.4,0.1c0.2-0.1,0.3-0.3,0.2-0.8
			C56.9,34.9,56.8,34.6,56.5,34.6z"/>
		<path class="st1" d="M49.1,20.9c0.3-0.4,0.2-0.7-0.3-1c-0.4,0-1,0.1-1.8,0.2c-0.4-0.3-0.7-0.4-0.8-0.3c-0.2,0.4-0.2,0.7-0.1,0.8
			c0.1,0.4,0.1,0.7,0.2,1.1c0.3,0.1,0.7,0.2,1,0.3C48.3,22.2,48.8,21.8,49.1,20.9z"/>
		<path class="st1" d="M51,28.9c0-0.4,0.1-0.9,0.1-1.3c-0.1-0.3-0.2-0.4-0.6-0.2c-0.3,0.1-0.6,0.3-0.9,0.4c0,0.1,0.1,0.2,0.1,0.3
			c-0.1,0.4-0.1,0.7-0.1,1.1C50.1,29.8,50.5,29.7,51,28.9z"/>
		<path class="st1" d="M74.5,16.8c0-0.2-0.1-0.4-0.1-0.5c-0.2-0.2-0.5-0.5-0.7-0.7c0,0.1,0.1,0.1,0.1,0.2c0.1,0.4,0.2,0.9,0.3,1.3
			c0.1,0.2,0.1,0.3,0.2,0.3c0,0,0,0,0,0.1c-0.1-0.1-0.1-0.1-0.2-0.2c-0.2-0.9-0.4-1.5-0.7-2c-0.8-0.8-1.7-1.6-2.6-2.4
			c0,0.2,0,0.5,0,0.8c0.1,0.5,0.3,0.9,0.7,1.2c0,0.2,0,0.4,0,0.6c-0.4-0.1-1.2-0.2-2.4-0.5c-0.9-0.3-1.4-0.9-1.6-1.6
			c0-0.5,0-1.1-0.1-1.6c0.2-0.6,0.4-0.9,0.6-1c-0.3-0.2-0.6-0.4-1-0.7c0,0.1-0.1,0.2-0.1,0.3c-0.1,0.4-0.2,0.8-0.5,0.8
			c0.1,0.7,0.2,1.5,0.3,2.1c-0.2,0.7-0.1,1.2,0.2,1.8c0.2,0,0.5,0,0.7,0c0.4,0.6,1,0.4,1.8,0.4c0.2,0.1,0.3-0.1,0.5,0.1
			c0.1,0.1,0.1,0.4-0.1,0.8c-0.4,0-0.8,0.1-1.3,0.4c-0.1-0.1-0.2-0.3-0.2-0.4c-0.2,0.1-0.4,0.3-0.8,0.7c-0.3,0.4-0.7,0.6-0.9,0.6
			c-0.1-0.1-0.1-0.2-0.2-0.5c-0.1-0.3-0.1-0.4-0.3-0.4c-0.5-0.1-0.6,0.3-0.4,1c0.2,0.2,0.3,1.1,0.4,1.1c-0.1,0-0.2,0-0.4,0
			s-0.4-0.4-0.7-1c-0.3-0.5-0.7-1-1.2-1.1c-0.6-0.1-1-0.1-1.3-0.2s-0.5-0.2-0.6-0.3c-0.1-0.1-0.2-0.3-0.1-0.6
			c-0.7-0.2-1.2-0.2-1.7,0c0-0.1-0.1-0.2-0.1-0.3c-0.2,0.1-0.5,0.4-0.8,0.7c-0.4,0.4-0.8,0.6-1.1,0.8c-0.3,0.2-0.5,0.5-0.6,1.1
			s-0.2,1.1-0.3,1.6c-0.2,0.5-0.4,1-0.6,1.5c-0.2,0.5-0.8,0.9-1.7,1.2c-0.3,0.8-0.2,1.7,0.3,2.5c0.3,0.4,0.6,0.4,1,0.1
			c0.4-0.4,0.6-0.5,0.8-0.5c0.2,0.5,0.4,1,0.7,1.5c-0.1,0.2-0.1,0.4-0.2,0.6c0.2,0,0.5-0.1,1.1-0.2c0.2-0.5,0.3-1,0.5-1.5
			c0.3-0.1,0.4-0.3,0.5-0.5s0.1-0.3,0-0.5c-0.2-0.3-0.4-0.6-0.6-0.8c-0.1-0.4,0-0.8,0.2-1.2c0.2-0.4,0.4-0.8,0.5-1.2
			c0.2-0.4,0.3-0.7,0.5-0.9c0.1-0.2,0.3-0.2,0.5-0.1c0.2,0.3,0.2,0.6-0.1,1.1c-0.2,0.4-0.4,0.8-0.4,1.1c-0.1,0.8,0.3,1.3,1.2,1.3
			c0.9,0.1,1.5,0.2,1.8,0.3c-0.1,0.1-0.1,0.3-0.2,0.4c-0.3,0.1-0.6,0.2-1.1,0.1s-0.7,0-0.7,0.3c0.1,0.2,0.2,0.4,0.3,0.6
			s0,0.3-0.1,0.5c-0.5-0.1-0.7,0-0.8,0.1c0,0.9-0.2,1.4-0.6,1.6c-0.6,0.1-1.2,0.2-1.7,0.3c-0.7,0.3-1.2,0.1-1.5-0.5
			c-0.1-0.4,0-0.8,0.1-1.4c-0.2,0.1-0.3,0.3-0.5,0.4c0,0.4,0,0.8,0,1.1c0,0.3-0.1,0.5-0.2,0.6c-0.4,0.4-0.7,0.7-1.1,1
			c-0.3,0.3-0.7,0.5-1.1,0.7h-0.1c-0.1-0.1-0.1-0.2-0.2-0.3c0.1-0.1,0.1-0.2,0.2-0.3c-0.1-0.1-0.3-0.4-0.6-0.7
			c0-0.2-0.2-0.5-0.5-0.9s-0.5-0.7-0.4-1c0.1,0,0.2,0,0.3-0.1c0-0.1-0.1-0.3-0.4-0.7l0,0c0,0,0,0-0.1-0.1c0-0.1,0,0,0.1,0.1l0,0
			c0,0,0-0.1,0-0.3c-0.2,0-0.4,0-0.6,0c-0.4,0.6-0.6,0.7-0.5,1.5c0.2,0.5,0.5,0.7,0.9,0.9c0,0.1,0,0.3,0,0.5
			c-0.2,0.1-0.3,0.3-0.5,0.4c-0.1,0.4-0.3,1.7-0.3,2.3c0.2,0,0.3,0,0.5,0c0.4-0.6,1.1-1.3,2.1-1.1v-0.2c0,0,0,0,0.1,0
			c0,0,0.1,0,0.1,0.1c0.2,0.1,0.2,0.3,0.1,0.6c-0.1,0.3-0.3,0.6-0.5,0.6c-0.3,0-0.7,0.7-1.2,0.7c-0.3,0-0.6,0-0.9,0
			c0.4,0.6,0.9,0.7,1.4,1.1c0,0.8-0.1,1-0.4,1.1c-0.2,0.1-0.8,0.2-1.6,0.2c-0.5,0-0.8,0.2-0.9,0.7c-0.1,0.5-0.3,1-0.4,1.7
			c0.1,0.2,0.2,0.4,0.3,0.7c0.9,0.4,1.2,0.8,1.1,1.1c0,0.4-0.3,0.9-0.9,1.5c-0.6,0.6-0.8,1.2-0.7,1.7c-0.7,0.3-1.2,0.8-1.7,1.4
			c-0.1,0.1-0.4,0.8-1,2c0.1,0.4,0.2,0.7,0.3,1.1c-0.1,0.8-0.1,1.6-0.2,2.3c0,0.4,0.1,0.7,0.2,1c0.1,0.2,0.3,0.4,0.7,0.7
			c0.4,0.3,0.6,0.4,0.6,0.6c0.1,0.2,0.3,1,0.8,1c0.1,0,0.3,0,0.4,0c0.1,0.6,0.4,0.6,0.9,1c0.6-0.1,0.9,0,1.1-0.1
			c0.2-0.1,0.7-0.1,1.6,0c0.3,0.1,0.7-0.1,1.2-0.4s0.8-0.4,0.9-0.3c0.9,0.6,1.4,0.8,1.6,0.8c0.2-0.1,0.4-0.1,0.5-0.1
			s0.2,0.2,0.3,0.5c0.1,0.2,0,0.5-0.1,0.9s-0.2,0.6-0.2,0.7c0,0.5,0.2,1,0.7,1.6c0.2,0.3,0.6,0.7,1.1,1.4c0.1,0.3,0,0.7-0.2,1.2
			c0.3,0.6,0.4,0.9,0.3,1.1c-0.7,0.8-0.9,1.6-0.6,2.6c0.3,0.5,0.5,1.2,0.7,1.9c0.2,0.7,0.3,1.3,0.4,1.7c0.2,0.5,0.5,1.1,0.7,1.6
			c0.1,0.1,0.1,0.4,0.1,0.8s0.1,0.7,0.3,0.7c0.3,0.2,0.7,0.2,1.2,0.1s0.9-0.3,1.4-0.5s0.9-0.5,1.2-0.9s0.7-1,1.4-1.8
			c0-0.2,0-0.5,0.1-0.7c0.3-0.3,0.6-0.5,0.9-0.8c0.3-0.3,0.4-0.6,0.3-1c-0.3-0.2-0.3-0.5-0.2-1c0.5-0.4,0.9-0.8,1.5-1.3
			c0.5-0.4,0.8-0.9,0.9-1.4c0.1-0.4,0.1-1.1-0.2-1.9c-0.2-0.9-0.2-1.6,0-2.2c0.9-1,1.9-2,2.8-3c0.2-0.4,0.6-1,1.3-1.8
			c0-0.1,0.1-0.2,0.2-0.4c0.1-0.2,0.3-0.4,0.5-0.7c0.1-0.1,0.1-0.5,0.1-1.1c-0.1,0-0.3-0.1-0.4-0.1c0,0.1-0.1,0.3-0.4,0.5
			c-0.3-0.1-0.7-0.1-1.2,0s-0.7,0.2-0.8,0.2c-0.4-0.4-0.6-0.7-0.4-1c0.5-0.1,1-0.2,1.5-0.3c0.7-0.4,1.4-0.8,2.2-1.3
			c0.8-0.5,1.4-0.9,1.7-1.3c0.7-0.8,1.1-1.5,0.9-2.1c-0.2-0.1-0.4-0.1-0.6-0.2c-0.1,0-0.3-0.2-0.4-0.5s-0.3-0.5-0.5-0.5
			c-0.1-0.1-0.5,0-1.1,0.3c-0.2,0.1-0.4,0.1-0.7,0c0-0.2-0.1-0.4-0.1-0.5c-0.9-0.4-1.3-1-1.4-1.7c0.1,0,0.3-0.1,0.4-0.1
			c0.5,1,1.5,1.4,3,1.2c0.3,0,0.4,0.1,0.4,0.4c0.4,0,1,0,1.9-0.1c0.7,0,1.3,0.1,1.6,0.4c1.1,0.5,1.6,1.1,1.6,1.9
			c0.7-0.2,1.3,0.2,1.6,1.3c0.3,1.1,0.6,1.7,0.8,1.9c-0.1,0.4-0.1,0.7,0,0.8c0.1,0.1,0.1,0.3,0.2,0.6c0.3-2,0.5-4.1,0.5-6.2
			c0-9.9-3.8-19-10-25.9C74.6,16.6,74.6,16.7,74.5,16.8z M66.7,32.6c0.1-0.1-0.1-0.3-0.5-0.8c0.1-0.1,0.1-0.3,0.2-0.4
			c0.2,0.1,0.3,0.1,0.5,0.2c-0.1,0.7,0.4,1.3,1.4,1.6c0.3,0.1,0.5,0.4,0.4,0.7c-0.1,0.3-0.3,0.5-0.5,0.6c-0.4,0.1-0.8,0.1-1.1,0
			s-0.7-0.3-1.3-0.6c-0.1-0.1-0.3,0.1-0.8,0.4c-0.1,0-0.3,0.1-0.6,0.1s-0.5,0.1-0.6-0.1c-0.2-0.6,0-0.9,0.8-1.5c0.1,0,0.3,0,0.4,0
			c0,0.6,0.2,0.4,0.6,0.5C66.1,33.3,66.4,32.9,66.7,32.6z M64.3,19.1c0.3-0.1,0.6-0.1,0.8-0.2c0.2,0,0.3,0,0.4,0.1
			c0.1,0.1,0.1,0.3-0.2,0.6c-0.1,0.2-0.2,0.4-0.2,0.6c0-0.1-0.1-0.3-0.4-0.4c-0.1,0.1-0.2,0.3-0.3,0.4c0.1,0.1,0.2,0.3,0.3,0.4
			c0,0.2,0.1,0.3,0.1,0.5c-0.5-0.2-0.8-0.5-0.9-0.9c0-0.2,0-0.4,0-0.6C63.8,19.3,64,19.1,64.3,19.1z M59.3,33.6
			c0.4,0.2,0.7,0.5,0.9,1c-0.1,0-0.4-0.2-1.1-0.5c-0.7-0.3-1-0.7-1-1.1C58.5,33.2,58.9,33.4,59.3,33.6z M65.9,39.3
			c-0.4,0.2-0.8,0.3-1.1,0.3c-0.5,0-0.9-0.1-1.4-0.2c-1.2-0.4-1.9-0.5-2.2-0.5c-0.2,0-0.3,0.2-0.4,0.5c-0.1,0.3,0,0.6,0.2,0.8
			c-0.5,0.1-1-0.1-1.6-0.7c-0.2-0.2-0.5-0.5-0.8-0.5c-0.2,0-0.4,0-0.6,0c-0.3,0-0.4-0.4-0.3-0.8c0.1-0.4,0.1-0.8,0-1
			c-0.1-0.1-0.2-0.2-0.3-0.3C57.1,37,56.3,37,55,37c-0.3,0-0.8,0.1-1.5,0.2c-0.3,0.2-0.7,0.4-1.1,0.6c-0.4,0.2-0.7,0.3-1.1,0.3
			c0-0.1,0.2-0.3,0.7-0.4s0.8-0.5,1.1-1.1c0.1-0.3,0.2-0.5,0.3-0.8s0.3-0.4,0.6-0.6s0.4-0.3,0.5-0.6c0.1-0.3,0.2,0,0.5,0
			s0.7,0,1.2,0c0.3-0.6,0.7-0.4,1.2,0.1c0.3,0.2,0.7,0.2,1.3,0.8c0,0.3,0,0.5,0,0.8c-0.1,0.1-0.2,0.1-0.5,0.1s-0.4,0.1-0.4,0.3
			c0.1,0.6,0.5,0.8,1.1,0.7c0.1-0.2,0.4-0.6,0.8-1.1c0.1-0.1,0.1-0.4,0-0.7c0.3-0.1,0.6,0.1,0.8,0.4c0.2,0.4,0.5,0.4,0.7,1
			c0.4,0,0.7,0,1.1,0c0.3,0,0.4-0.5,0.3-0.8c-0.1-0.1-0.4-0.3-0.8-0.5c-0.2-0.4-0.2-0.6,0.1-0.7s0.5-0.1,0.7-0.1
			c-0.1,0.5,0.1,1,0.4,1.4c0.3,0.3,0.7,0.6,1,0.9c0.8,0.1,1.4,0.1,1.7,0c0.7-0.4,1.1-0.5,1.2-0.3c0,0.5,0,0.8,0,1
			C67.1,38.4,66.7,38.8,65.9,39.3z M70.5,47.7c-0.3,0-0.8-0.4-1.5-1.3c-0.2-0.5-0.4-1.2-0.8-2c0-0.2-0.2-0.6-0.7-1.1
			c-0.7-0.8-0.9-1.5-0.6-2.2c0.3-0.1,0.6,0.2,0.9,0.8c0.1,0.1,0.2,0.4,0.3,0.7c0.2,0.3,0.3,0.5,0.5,0.8c0.1,0.1,0.2,0.1,0.3,0.2
			c0,0.1,0.1,0.3,0.1,0.4s0.1,0.4,0.4,0.9c0.2,0.3,0.5,0.7,0.7,1c0.3,0.4,0.4,0.8,0.4,1.1C70.5,47.2,70.5,47.4,70.5,47.7z"/>
		<path class="st1" d="M47.5,17c0.3-0.5,0.1-1.2-0.4-1.7c0.1-0.1,0.2-0.3,0.3-0.4c-0.1-0.1-0.1-0.3-0.2-0.4c0.1-0.1,0.4-0.2,0.9-0.2
			c0.1-0.3,0.3-0.5,0.5-0.8c0.1-0.5,0.1-1,0.2-1.5c0-0.2-0.1-0.3-0.1-0.5c0.4-0.2,0.6-0.5,0.6-0.8c0-0.4,0.1-1,0.4-1.8
			c0-0.1,0.1-0.2,0.3-0.5c0-0.1,0.1-0.1,0.1-0.3c0.1-0.1,0.3-0.4,0.5-0.8c0.2,0.1,0.3,0,0.4-0.1c0.1-0.1,0.2-0.3,0.4-0.6
			c0-0.3-0.1-0.5-0.2-0.5c-0.4-0.1-0.6-0.1-0.8,0c-0.2,0.2-0.4,0.2-0.5,0.2c-0.2-0.2-0.3-0.4-0.2-0.6c0.1-0.2,0.3-0.4,0.6-0.5
			c0.1-0.1,0-0.3-0.1-0.6c-0.3-0.2-0.5-0.5-0.7-0.8c-0.7-0.1-1.3-0.1-2-0.1c-0.1,0.1-0.1,0.1-0.2,0.1c-0.5,0-0.9,0.2-1.2,0.6
			c-0.3,0.1-0.5,0.1-0.8,0.2c0-0.1,0-0.1,0-0.2c0-0.1-0.1-0.1-0.1-0.2c-0.1,0.1-0.2,0.3-0.3,0.5c-0.1,0.3-0.1,0.4-0.2,0.4
			c-0.2,0-0.2-0.2-0.1-0.6c0-0.1-0.2-0.1-0.5,0c-0.5,0.1-0.8,0.1-0.9,0c0.2-0.2,0.4-0.4,0.3-0.6c0-0.1,0-0.2,0-0.2
			c-2.6,0.2-5.2,0.6-7.7,1.3c-0.2,0.2-0.3,0.4-0.4,0.6C35,6.4,34.7,7,34.6,7.5c0,0.1,0.2,0.1,0.7-0.1c0.1-0.1,0.1,0,0.2,0.1
			c-0.2,0.3-0.6,0.7-1.3,1.1c-0.1,0.1-0.2,0.3-0.3,0.7c0,0.1,0.1,0.1,0.1,0.2c0.1-0.1,0.1-0.1,0.2-0.2c0.1,0.1,0.2,0.3,0.3,0.5
			c0.6-0.1,0.9,0.5,1,0.5s0.2,0,0.3,0c0.2,0,0.4-0.6,0.6-0.9c0.3-0.3,0.6-0.7,1-0.8s0.7-0.5,0.9-1.1c0.1-0.1,0.1-0.1,0.2-0.2
			c0.1-0.1,0.2-0.2,0.5-0.4c0.5-0.1,1.2-0.4,2-0.9c0.1,0.1,0.1,0.1,0.2,0.2c-0.1,0.1-0.2,0.1-0.3,0.2c-0.1,0.4-0.2,0.8-0.4,1.2
			c-0.4,0.1-0.7,0.1-1.1,0.2C39.1,7.9,38.8,8,38.6,8c-0.2,0.1-0.3,0.3-0.3,0.6s0,0.5-0.1,0.7c-0.2,0.2-0.4,0.3-0.5,0.5
			s-0.1,0.7,0,1.3c0.5-0.1,0.8-0.2,1-0.2c0.5,0,0.8,0.3,0.9,0.9c0.1,0.6,0.1,1.2,0,1.7c-0.2,0.8-0.4,1.4-0.8,1.9
			c-0.3,0.8-0.2,1.4,0.3,1.7c0,0.1-0.1,0.3-0.3,0.5c-0.3,0.2-0.4,0.4-0.3,0.5c-0.2,0.1-0.3,0.1-0.5,0.2c-0.1,0.5-0.3,0.9-0.5,1.2
			c0,0.1,0,0.4,0.1,0.7c-0.2,0.9-0.1,1.8,0.2,2.6c0.3,0.9,0.7,1.3,1.4,1.3c0.3-0.6,0.6-1.2,0.9-1.9c0.1-0.1,0.3-0.1,0.4-0.2
			c0.1-0.7,0.4-1.2,1-1.5s1.1-0.5,1.5-0.7s0.8-0.2,1.1-0.8c0.2,0,0.4,0,0.5,0C45.8,19,46.8,17.8,47.5,17z M36.7,7.5
			c-0.2-0.1-0.4-0.2-0.6-0.4c0.1-0.5,0.3-0.6,0.7-0.5c-0.1,0.1-0.1,0.1-0.2,0.2C36.5,7.1,36.6,7.3,36.7,7.5z"/>
	</g>
</g>
<g>
	<path class="st1" d="M106.9,36.4c0.2,1.4,0.2,4.5,0,6v1c0,0.8-0.2,1.8-0.6,2.6c0.2,0,1.7,0,1.8,0.2c0.1,0.3-0.1,0.6-0.3,0.6
		c-0.4,0-2.1-0.3-2.5,0h-2.8c-0.2,0-0.2-0.3-0.2-0.3c0-0.2,0-0.4,0.2-0.4h0.4c0.6,0,0.6-0.2,1-0.2c-0.2-2-0.4-5.6-0.4-7.6
		c0-1.6,0.4-3.2,0.2-4.5c-0.2-2.2-0.2-4.2,0-6.2c0-3.2,0.5-6.1,0.7-9.3c0-0.4,0-0.8,0.2-1.2c-0.2-0.2-1.3-0.3-1.6-0.5
		c0-0.3,0-0.4,0.3-0.4c0.5,0,2.4-0.2,3.1-0.2c0.8,0,1.6-0.1,2.4-0.1s2.5,0.4,3.3,0.8c1.2,0.4,2,1.2,2.5,2.1c0.4,0.6,0.4,1.4,0.4,2
		c0.2,1.4,0.2,2.8-0.2,4.2v0.2c0.2,1.4-0.6,2.4-1.2,3.4c-0.2,0.6-0.6,0.7-0.8,1c-0.4,0.8-2.5,0.9-3.3,1.3c-0.4,0.2,1.5,1.1,1.7,2.1
		c1.1,2.4,1.6,6.5,2.4,8.8c0.3,0.7,0.4,1.7,0.5,2.6c0.1,0.7,0,1.1,0.1,1.8c0,0-0.1,0.1-0.1,0.3h0.3c0.8-0.3,1.8-0.1,1.7,0.5
		c-0.1,0-0.2,0.2-0.3,0.2c-0.3,0-0.5,0.1-0.7,0.1c-0.8,0.1-1.9,0.2-2.8,0.2c-0.1,0-0.3,0-0.4-0.2c-0.2,0-0.3-0.2-0.3-0.4
		c0.3-0.3,0.5-0.1,0.8-0.3c0,0-0.1-0.1-0.1-0.2c-0.1-0.2-0.1-0.3-0.3-0.6c-0.4-1.6-1-3.2-1.4-4.8c-0.2-0.8-0.6-3.2-0.8-3.9
		c-0.2-0.6-0.8-4-1.1-4.4c-0.3-0.7-1.1-1.4-1.5-1.4h-0.5c0,0.3-0.1,0.5-0.1,0.8C106.5,33.7,106.5,35.1,106.9,36.4z M106.2,38.6
		c0-0.4-0.2-0.8-0.4-1.2c-0.3,0.4-0.3,0.8-0.3,1.2c0.3,0.4,0.3,0.8,0.3,1.2c-0.3,0.4-0.3,0.8-0.3,1.2c0,0.4-0.2,1,0.3,1.4
		C106.4,41.2,106.2,40,106.2,38.6z M106.3,25.4c0.1-0.3,0.3-3.9,0.1-4.1l-0.2-0.6c0,0.3-0.2,0.8-0.3,1.1c0,0.2,0.1,1.9,0.1,2.1
		L106.3,25.4z M107.1,18.2c0.4,3,0,6,0,9.2c0,1.1-0.1,2.3-0.2,3.4c0.3,0,0.8-0.1,0.8-0.1c1-0.4,1.6-1.4,2.2-2.2c1-2.2,1-1.6,1-4.4
		c-0.2-1,0-2.2,0-3.2c0-0.5-0.2-1-0.4-1.3c-0.4-0.6-0.8-1-1-1.6c-0.3-0.4-0.4-0.6-0.8-0.6c-0.4-0.2-1-0.4-1.4-0.5
		c-0.2-0.3-0.4,0.5-0.8,0.3C106.8,17.7,107.1,17.6,107.1,18.2z M112.7,27.5c0.4-0.6,0.4-1.2,0.2-2C112.5,26.3,112.5,26.5,112.7,27.5
		z M113.1,44.4l0.1,1c0.3-0.3,0.3-0.3,0.2-0.7l0.1-0.4c0-0.2,0-0.4-0.5-0.7C113,43.8,113.1,44.1,113.1,44.4z M113.9,20.4
		c0-0.4-0.2-0.8-0.4-1c0-0.2-0.2-0.2-0.4-0.4c0,0.8,0.2,1.6,0.4,2.4c0.2,0.2,0.4,0.4,0.6,0.6C114.1,21.4,114.1,20.9,113.9,20.4z"/>
	<path class="st1" d="M128.9,43.1v-0.6c0.1-0.1,0.2-0.1,0.3-0.2c0.1,0,0.3,0.1,0.4,0.1v1.1c0,1.1-1.5,2.1-2.1,2.3
		c-0.3,0-0.3,0.2-0.4,0.2c-1.4,0-2.3-1.6-2.4-3.3v-0.5c0-0.1,0-0.1-0.1-0.1c0,0-0.8,0.8-1.1,1.3c-0.2,0.8-1.6,1.7-1.8,1.7
		c-2.1,0-2.9-1.3-2.9-3.7c0-1,0.1-1.5,0.3-2.7c0-1,1.3-2.6,2.1-3.1c1.5-1,4-0.7,4.5-2.4c0-0.8,0-1.5,0-2.3c0-0.4,0-0.8-0.1-1.1v-1.1
		c0-0.3,0-0.3-0.3-0.4c-0.3-0.7-0.5-0.9-1.4-0.9c-2,0-1.8,1.1-1.8,1c0.3,0.6,0.8,1.1,1.2,1.5c0.1,2.4-1.7,2.3-1.9,2.3
		c-1,0-1-0.5-1.3-0.8v-1.1c-0.1-2.4,1.9-3.3,2.2-3.3c1.1-0.5,1.6-0.5,2.5-0.5h0.3c3.3,1,3.9,2.1,4,5.8c-0.3,1.2-0.1,2.6-0.3,3.9
		c0.1,2.7-0.8,5.7-0.7,8.4C128.9,44.3,128.5,43.1,128.9,43.1z M119.6,42.5c0,0.2,0.1,0.3,0.3,0.3c0.1,0,0.1,0,0.2-0.1v-1.1
		c-0.3,0-0.3,0-0.5-0.2V42.5z M121.5,31.5c0.3,0,0.1-0.4,0.5-0.5c0-0.5,0-0.6-0.5-0.8c0,0.4,0,0.7-0.4,0.9
		C121.4,31.1,121.3,31.5,121.5,31.5z M121.1,38.6c0,0.1,0,0.1,0.2,0.2c0-0.2,0.2-0.5,0.2-0.9C121.2,38.3,121.1,38.5,121.1,38.6z
		 M122.4,38.3c-0.2,0.3-0.2,0.7-0.1,1.2c-0.3,0.2-0.3,0.6-0.3,1.1c0,0.9,0.2,2.3,1,2.3c0.3,0,1.8-1.9,1.7-2.5v-0.7
		c0.3-0.3,0.7-3.5,0.7-4.5c0-0.1-0.1-0.1-0.1-0.3c-0.7,0.2-1.3,0.5-2,0.7C123.2,36.2,122.5,38.2,122.4,38.3z M126.9,28.4
		c0,0.5,0,0.9,0.5,1.1C127.1,28.9,127.1,28.9,126.9,28.4z M127,34.3c0,0.3-0.1,0.6-0.1,1c0,0.2,0,0.4,0.1,0.6
		c0.2-0.7,0.2-1.1,0.2-1.6H127z M127.6,31.8h0.3c0-0.2,0-0.5-0.3-0.9V31.8z"/>
	<path class="st1" d="M137.9,27.5c-0.3,1.4-0.4,2.5-0.4,4.2c0,1.3-0.2,2.4-0.5,3c-0.2,1.1,0,1.3,0,2.5c-0.2,0.5,0,1.3,0,1.8
		c0,0.7-0.3,1.6-0.3,2.3c0,1.2,0.3,2.3,0.5,3.2c0.5,0,0.7,0,0.9-0.2h0.5c0,0,0.3,0,0.3,0.2v0.3c-0.7,0.5-1.2,0.5-1.8,0.6
		c-1.1,0.3-2.3,0.3-3.4,0.3c-0.5,0-0.5,0-0.9-0.4c0.3-0.9,0.9-0.7,1.4-0.9c-0.5-2.1-0.2-4.3-0.2-6.3c0-1.8,0-3.4,0.5-5.3v-1.1
		c0-1.1,0.5-2,0.4-3H134c-0.8,0-0.5-0.2-0.7-0.5c0.3-0.2,0.5-0.2,0.7-0.2c0.5-0.3,0.5-0.1,1.1-0.3c0.5-0.3,0.6-0.3,1.7-0.8
		c0.4-0.2,0.8-0.3,1.2-0.3c0.4-0.3,0.8-0.1,0.7,0.4C138.4,27.2,138.3,27.5,137.9,27.5z M135.6,21.2c0.2-0.7,0.5-0.9,1.1-0.9h0.9
		c0.5-0.3,0.9,0,1.4,0.5c0,0.5,0.3,0.7,0.5,0.9c0.3,0,0.3,0.4,0,0.4c0,0.2,0,0.5-0.2,0.7c-0.5,0.5-0.7,0.9-1.2,1.3
		c-1.1,0.7-2,0.3-2.7-0.6c0-0.3,0-0.5-0.2-0.7C135.3,22.2,135.3,21.8,135.6,21.2z M136.2,38.3l-0.3,0.3c-0.2,0.4-0.4,1.5-0.4,2.3
		c0,0.3,0,0.6,0.1,0.8C135.9,40.5,136.2,39.4,136.2,38.3z M136.2,34.3l-0.3-0.3c-0.1,0.2-0.1,0.3-0.1,0.4c0,0.3,0.2,0.6,0.4,0.9
		V34.3z M136.1,44.1h0.3c-0.1,0-0.1-0.1-0.1-0.3C136.3,43.9,136.1,43.9,136.1,44.1z M136.5,22.5c0,0,0,0.2,0.2,0.5
		c0-0.7,0.3-1.2,0.5-1.6C136.7,21.6,136.5,22,136.5,22.5z M138.5,22c-0.2,0-0.2,0-0.2,0.2C138.5,22.2,138.5,22.2,138.5,22z"/>
	<path class="st1" d="M147.2,26.7l-0.2,3.4c0,0.8-0.3,1.1-0.3,1.9c0.3,0,0.3-0.3,0.3-0.3c0.3-1.2,0.8-2.4,1.4-2.9s1-1.6,1.6-1.8
		c0.6-0.6,0.9-0.8,1.8-1h0.5c1.3-0.1,2.1,1.4,2.1,2.7c0,0.6,0.2,1.3,0.2,1.9c0,1.9,0.3,3.9-0.3,5.9c0,0.3-0.3,1.3-0.3,1.9
		c0,1.8-0.5,3.4-0.9,4.8c0.6,0,1.1,0.1,1.1,0.4v0.3c0,0.3-0.3,0.3-0.3,0.3c-0.4-0.1-0.8,0.1-1.1,0.1c-0.4,0-0.7,0-1.1,0.2h-1.8
		c-0.1,0.1-0.6,0-0.7,0c-0.3,0-0.4-0.6-0.4-0.8c0-0.3,0.8-0.3,0.9-0.3h0.8c-0.3-0.5-0.4-0.8,0-1.1c0.3-0.9,0.1-0.9,0.5-8.7
		c0-0.8-0.3-1.7-0.3-2.2v-0.6c-1.1-0.3-0.7-1.5-1.4-1.9c-1.8,1.7-2.5,5.1-2.5,7.2v0.8c0,0.8-0.2,2.1-0.2,2.7v1.8l-1.2,1.9
		c0,0.3,0,0.3-0.3,0.6h0.3c0.6,0,0.7,0,1.3-0.3h0.3c0.1,0.1,0.1,0.2,0.1,0.3c0,0.2,0,0.6-0.6,0.6c-0.8,0.3-1.6,0.3-2.4,0.3
		c-0.5,0-0.8,0.2-1.4,0.2c-0.5,0-0.8-0.1-0.8-0.4c0.3-0.3,0.2-0.6,0.4-0.6c0.3,0,0.8,0,1,0c0.1,0,0.1,0,0.2-0.1v-4.8
		c0.1-0.1,0.2-0.3,0.2-0.4s-0.1-0.3-0.2-0.5v-3.1c0.3-0.8,0.3-1.7,0.3-2.5v-3.1c0-0.6,0-1.7,0.3-2.3c-0.3,0-0.3,0.1-0.8,0.1
		c-0.3,0-0.6,0-0.6-0.3c0-0.5,0.6-0.3,0.8-0.8h0.3c1,0,2.5-0.8,2.9-0.8c0.2,0,0.8,0,0.9,0.3C147.4,25.9,147.2,26.1,147.2,26.7z
		 M145.1,36.2c0.1-0.1,0.2-0.2,0.2-0.3s0-0.2-0.2-0.3V36.2z M145.8,26.1c0.3,0,0.3,0,0.3,0.3c0.2-0.3,0.3-0.3,0.3-0.4
		c0,0,0-0.1-0.1-0.2C146.1,25.8,145.8,25.8,145.8,26.1z M150.9,27.1l0.3,0.3c0.3,0,0.3-0.3,0.3-0.6h-0.3L150.9,27.1z M152.7,30.1
		c0,0.5-0.1,1.1-0.1,1.8c0,0.3,0,0.7,0.1,1.1c0.3-0.5,0.5-1.2,0.5-2c0-0.5,0-1.1-0.2-1.7C153,29.6,152.7,29.9,152.7,30.1z"/>
	<path class="st1" d="M169.6,37.4c0,1.9,0,3.3,0,5.3v0.6c0.3,0,0.4,0.3,0.4,0.5v0.3h-0.5c-1.2,0-2.4,0.3-3.3,0.3h-0.6v-0.3
		c0.6-0.6,1.3-0.3,2.2-0.6h-0.6c-0.3-0.3-0.4-0.8-0.4-1.1c0-0.4,0.1-0.8,0.1-1.1V41c-0.1-0.3-0.1-0.6-0.1-0.9c0-0.7-0.2-1.3,0-2.1
		c0-1,0.1-1.9,0.1-2.8c0-0.5,0-1-0.1-1.4v-3.4c-0.3-0.6-0.3-0.9-0.5-1.1c-0.3,0-0.6,0-0.8-0.3c-1.3,1.1-2,4.7-2,4.8
		c0,1.4,0.5,1.3,0.2,2.7v2.2c0.3,0.3-0.2,1.8-0.2,2.1v1.9c0,0.5,0.1,1,0.1,1.3c0.2,0.3,0.7,0.1,1,0.4c0,0.3,0,0.3-0.3,0.5
		c-1.7,0-2,0-2.2,0c-0.8,0.3-1.4,0-2.3,0.3h-0.3c-0.3,0-0.6-0.3-0.6-0.5c0.6-0.6,1.1-0.5,1.7-0.6l-0.2-3.6c-0.1-1.3,0.1-7.5,0.1-8.2
		c-0.1-0.9,0.5-4.4-0.3-4l-0.6,0.3c-0.8,0.6-1,0-0.8-0.3c2.7-1.7,4.1-2.2,4.7-2.2c0.3,0,0.6,0.3,0.6,0.5c0,0.6-0.3,1.2-0.3,1.7
		c0,0.6-0.1,1.3-0.1,1.9c0.3-1,1.9-2.6,2.1-2.8c1.8-0.9,2.6-0.5,2.9-0.4c1.3,0.7,1.4,1.4,1.4,2.8c0.3,0.6-0.1,1.2-0.1,1.7v1
		c0.6-1.4,1.1-2.4,1.6-3.3c0.7-1.4,2.8-2.5,3.8-2.5c1.8,0,2.5,1.9,2.5,3.5v2c0,1.7-0.8,4.4-1.1,6.1c-0.3,1.4,0,4.9-0.3,6.3
		c0.5,0.3,1.2,0.3,1.3,0.6c0.1,0.2,0,0.5-0.1,0.6c0,0-0.3,0.1-0.4,0c-1.3-0.5-3.9,0-4.3-0.3c-0.3-0.2-1.3,0.2-1.1-0.4
		c0-0.1,0.1-0.3,0.3-0.3c0.1,0,0.3-0.2,0.4-0.1h0.5c0.2,0,0.4,0,0.4-0.1l0.1-0.8c0-0.5-0.2-4.3-0.2-4.6c-0.1-0.3,0.2-0.7,0.2-0.9
		c0-0.5,0.1-0.9,0.1-1.3l0.4-5.3c0-0.7-0.2-1.5-1.5-1.5s-2.1,2.7-2.6,4.2c-0.3,0.3-0.4,2.3-0.4,2.6L169.6,37.4L169.6,37.4z
		 M161.6,31.2c0-0.3-0.1-0.7-0.1-0.8c0,0.4-0.2,0.6-0.2,0.9c0,0.1,0,0.3,0.2,0.5C161.6,31.6,161.6,31.4,161.6,31.2z M167,28.1
		c0,0.3,0.5,0.8,0.8,0.8c0-0.3,0-0.5-0.3-0.8H167z M168.7,33.7c0.3-0.3,0.3-0.6,0.3-1.1C168.7,32.9,168.7,33.5,168.7,33.7z
		 M169.5,28.9v-0.3c0-0.3,0-0.5-0.5-0.8C169,28,169.2,28.9,169.5,28.9z M173,29.3c-0.2-0.2-0.3-0.4-0.4-0.4c0,0-0.1,0-0.2,0.1v0.3
		H173z M174.7,28.2c-0.3-0.3-0.6-0.3-0.8-0.3v0.3H174.7z M176.4,27.7l-0.3-0.3h-0.3v0.3c0.3,0,0.3,0,0.6,0.3L176.4,27.7L176.4,27.7z
		 M175.8,36.6v1.1c0-0.3,0.3-0.6,0.3-1.1H175.8z M176.6,29c0.3,0.2,0.3,0.3,0.3,0.4c0-0.3-0.1-0.5-0.3-0.7V29z"/>
	<path class="st1" d="M192.1,43.1v-0.6c0.1-0.1,0.2-0.1,0.3-0.2c0.1,0,0.3,0.1,0.4,0.1v1.1c0,1.1-1.5,2.1-2.1,2.3
		c-0.3,0-0.3,0.2-0.4,0.2c-1.4,0-2.3-1.6-2.4-3.3v-0.5c0-0.1,0-0.1-0.1-0.1c0,0-0.8,0.8-1.1,1.3c-0.2,0.8-1.6,1.7-1.8,1.7
		c-2.1,0-2.9-1.3-2.9-3.7c0-1,0.1-1.5,0.3-2.7c0-1,1.3-2.6,2.1-3.1c1.5-1,4-0.7,4.5-2.4c0-0.8,0-1.5,0-2.3c0-0.4,0-0.8-0.1-1.1v-1.1
		c0-0.3,0-0.3-0.3-0.4c-0.3-0.7-0.5-0.9-1.4-0.9c-2,0-1.8,1.1-1.8,1c0.3,0.6,0.8,1.1,1.2,1.5c0.1,2.4-1.7,2.3-1.9,2.3
		c-1,0-1-0.5-1.3-0.8v-1.1c-0.1-2.4,1.9-3.3,2.2-3.3c1.1-0.5,1.6-0.5,2.5-0.5h0.3c3.3,1,3.9,2.1,4,5.8c-0.3,1.2-0.1,2.6-0.3,3.9
		c0.1,2.7-0.8,5.7-0.7,8.4C192.1,44.3,191.7,43.1,192.1,43.1z M182.8,42.5c0,0.2,0.1,0.3,0.3,0.3c0.1,0,0.1,0,0.2-0.1v-1.1
		c-0.3,0-0.3,0-0.5-0.2V42.5z M184.7,31.5c0.3,0,0.1-0.4,0.5-0.5c0-0.5,0-0.6-0.5-0.8c0,0.4,0,0.7-0.4,0.9
		C184.6,31.1,184.5,31.5,184.7,31.5z M184.3,38.6c0,0.1,0,0.1,0.2,0.2c0-0.2,0.2-0.5,0.2-0.9C184.5,38.3,184.3,38.5,184.3,38.6z
		 M185.6,38.3c-0.2,0.3-0.2,0.7-0.1,1.2c-0.3,0.2-0.3,0.6-0.3,1.1c0,0.9,0.2,2.3,1,2.3c0.3,0,1.8-1.9,1.7-2.5v-0.7
		c0.3-0.3,0.7-3.5,0.7-4.5c0-0.1-0.1-0.1-0.1-0.3c-0.7,0.2-1.3,0.5-2,0.7C186.4,36.2,185.7,38.2,185.6,38.3z M190.1,28.4
		c0,0.5,0,0.9,0.5,1.1C190.3,28.9,190.3,28.9,190.1,28.4z M190.2,34.3c0,0.3-0.1,0.6-0.1,1c0,0.2,0,0.4,0.1,0.6
		c0.2-0.7,0.2-1.1,0.2-1.6H190.2z M190.8,31.8h0.3c0-0.2,0-0.5-0.3-0.9V31.8z"/>
	<path class="st1" d="M199.6,39v0.6c0.1,0.4,0.2,0.8,0.2,1.1c0,0.7-0.4,1.6-0.4,2.1c0.3,0.3,0.6-0.2,1.3,0.1
		c0.2,0.2,0.1,0.4-0.2,0.5h-0.3c-0.4,0-1.4,0.4-1.8,0.4c-0.8,0-1.4,0-2,0.3c-0.3,0-0.6,0.3-0.9,0.1l-0.2-0.3
		c0.6-0.6,1.1-0.6,1.9-0.6c-0.3-0.8-0.3-1.4-0.3-2v-4.2c0-1.1,0.3-2.6,0.3-4c0-0.8,0.3-1.7,0.3-2.8c0.3-1.7-0.2-3,0.1-4.7
		c0-1.1,0.3-2.2,0.3-3.4c-0.1-0.2-0.1-0.3-0.1-0.5c0-0.4,0.2-2.1,0.2-2.6l-0.8,0.1c-0.1,0.1-0.2,0.1-0.3,0.1c-0.3,0-0.5-0.2-0.5-0.4
		c0-0.1,0.3-0.5,0.5-0.5c2.4-0.3,3.3-1.5,3.9-1.5l0.3-0.3c0.3,0,0.6,0.3,0.6,0.5v0.5c-0.3,0.6-0.3,1.4-0.3,2v2c0,0.3,0,0.5-0.3,0.8
		v0.3c-0.3,0.3-0.3,0.8-0.3,1.1c0,3.5-0.4,5.2-0.4,8.7c-0.3,0.5-0.3,0.8-0.3,1.3v0.6c0.2,0,3.1-4.4,3.1-3.9c0.1-0.1,0.7-2.3,0.6-2.4
		c-0.6-0.2-1.5-0.2-1-0.7s2.8-0.5,3.7-0.5h0.8c0.3,0,0.3,0,0.3,0.3v0.3l-1.4,0.3c-1.2,0.7-2.3,2.8-4.2,5.5c-0.5,0.6-0.4,0.6,0.2,1.4
		c0.3,0.5,1.2,1.6,1.6,2.5c0.5,1.6,1.1,3.2,1.7,4.8c0.3,0.3,0.3,0.3,0.3,0.5l0.6,1.3h0.6c0,0.2,0.1,0.2,0.1,0.3c0,0,0,0.1-0.1,0.2
		l-4.3,0.2c-0.8-0.9,1.1-0.4,0.4-1.1c-1.4-2.3-1.6-3.7-2.9-5.9c0-0.3,0-0.3-0.3-0.9C199.9,38,199.9,38.5,199.6,39z M198.2,36.8
		c-0.2,0.2-0.2,0.4-0.2,0.6s0,0.5,0.2,0.8V36.8z M199.3,32.9v1c0-0.2,0.3-0.5,0.3-0.8C199.6,32.9,199.6,32.9,199.3,32.9z M200,23.3
		c0-0.1,0.1-0.1,0.3-0.1c0-0.3,0.1-0.8,0.1-1.3c0-0.3,0-0.5-0.1-0.7c0,0.4,0,0.6-0.3,0.8V23.3z M200.6,19.8V19
		c-0.3,0.2-0.5,0.5-0.5,0.8c0,0.1,0,0.2,0.1,0.3C200.3,20.1,200.6,20.1,200.6,19.8z"/>
	<path class="st1" d="M218,25.6c1.1,0,1.8,0.7,2.3,1.6c0.5,1.1,0.9,2.3,0.9,3.4c-0.2,0.9-0.2,1.8-0.2,2.7c0,0.3,0.4,0.5,0.1,0.8
		c0,0.5-0.4,0.4-0.8,0.4c-1.8,0-3.4,0.5-4.3,0.2c-0.5,0-0.9,0-1.4,0.3c0,0.9-0.3,1.8-0.3,2.5c0.3,0.7,0.3,1.1,0.3,1.6
		c0,0.9-0.2,2,0,2.9c0.2,0.7,0.5,1.1,0.9,1.8c0.5,0.5,0.9,0.7,1.6,0.3c0.3-0.3,0.9-0.3,0.9,0c0.4-0.3,0-0.3,0.4-0.6
		c0.5-0.7,0.7-1.9,0.9-2.6c0.3-0.3,0.3-0.3,0.3-0.5c0,0,0.7-0.3,0.9,0.2v0.3c0,0.7,0,1.1-0.3,1.6c-0.2,0.7-0.7,1.6-1.1,1.8
		c-0.5,0.3-0.9,0.7-1.6,0.9c-1.8-0.1-3.7,0.2-5.1-1.7l-0.2-0.3c-1.2-1.3-1.6-3.7-1.4-5.5v-4.2c0-1.4,0.5-2.5,0.8-3.8
		c0.2-0.7,0.5-1.3,0.9-1.8c0.3-0.5,0.5-0.9,0.5-1.4c0.3-0.4,0.7-0.6,1.1-0.9c0.5-0.5,0.9-0.5,1.4,0c0.2,0.3,0.5,0.3,0.6,0
		C217.3,25.4,217.4,25.6,218,25.6z M212.5,40.8c-0.5-0.9-0.5-2.1-0.5-3.2c0.3-0.7,0.2-4.1,0.2-4.7c0-0.5,0-0.9-0.2-1.4l-0.2,7.5
		c0,0.9,0.2,1.6,0.7,2.3V40.8z M215.7,33.5c0.7,0,0.5,0,1.5,0v-0.4c0.2-0.7,0.2-1.4,0.2-2.1c0.3-1.1,0.2-2,0.2-3.2
		c0-0.2,0-0.2-0.2-0.5c0-0.2,0-0.5-0.3-0.7c-0.7-0.4-1-0.7-1.4-0.3c-0.9,2.3-0.7,4.8-0.9,7.1C215.3,33.8,215.2,33.8,215.7,33.5z
		 M220.1,28.3c-0.5-0.5-0.5-0.9-0.9-1.1c-0.3,0.2,0,0.5,0,0.7c0.8,0.2,0.7,0.8,0.7,1.6C220.1,29,220.3,28.8,220.1,28.3z"/>
	<path class="st1" d="M233.9,28.1c0,0.8-0.7,2-1.6,2c-1.2,0-1.1-0.8-1.9-0.7c-0.7,1.7-1.7,4.5-1.4,6c0.2,2-0.1,3,0.2,4.8
		c0,0.9,0.2,1.8,0.2,2.9v0.5c0.3,0.5,0.6,0.5,1.1,0.7c0.2,0,0.2,0.5,0,0.7c-0.4,0-0.7,0.2-2.3,0.4c-0.3,0-0.9,0.5-1.4,0.5
		c-0.6-0.1-1.4,0.2-1.8-0.5c0.2-0.4,0.7-0.4,1.1-0.4c0.3-0.5,0.7-0.2,0.5-0.7l-0.5-2.5c-0.2-1.2,0-1.7-0.2-2.8c-0.2-1.6,0-2.9,0-4.5
		c-0.3-1.3-0.1-3.6-0.1-5.1v-0.9c-1.1,0.2-1.5,0.3-1.8-0.3c0.3,0,0.3-0.3,0.5-0.3c0.9-0.2,2.2-0.8,3.2-1.3c0.2,0,0.7-0.5,1-0.6
		s0.3,0.3,0.3,0.5s-0.3,0.5-0.3,0.7c0.3,1.2-0.1,4.5,0.1,5.7c0.5-2,1.1-4.9,2.1-6c0.7-0.7,1.3-0.9,1.8-0.9s0.9,0.3,1.1,0.8
		c0,0.3,0.2,0.1,0.2,0.4L233.9,28.1z M228,42.1c-0.3,0-0.3,0.3-0.3,0.7C228.3,42.3,228.3,42.3,228,42.1z M228.3,39.6
		c0-0.9,0-2.3,0-3.4c0.3,0,0.1-0.1,0-0.4c0,0.2-0.2,0.2-0.2,0.2v2.7c0,0.4,0,1.1,0.2,1.6C228.5,40,228.3,39.8,228.3,39.6z"/>
</g>
<g class="st2">
	<path class="st3" d="M115.7,63.5v1.9c0,0.8,0,1.2,0.1,1.3s0.3,0.2,0.6,0.2h0.4v0.4c-0.7,0-1.3,0-1.7,0c-0.4,0-1,0-1.7,0v-0.4h0.4
		c0.3,0,0.5-0.1,0.6-0.2s0.1-0.6,0.1-1.4v-4.2c0-0.8,0-1.2-0.1-1.3s-0.3-0.2-0.6-0.2h-0.4v-0.4c0.6,0,1.2,0,1.7,0l3.2-0.1
		c0.3,0,0.7,0,1,0.1c-0.1,0.4-0.2,1-0.2,1.7h-0.4c0-0.4-0.1-0.7-0.1-1c-0.5-0.1-1-0.2-1.6-0.2c-0.5,0-0.9,0-1.3,0.1
		c0,0.5-0.1,0.9-0.1,1.3v1.8c0.2,0,0.4,0,0.7,0c0.6,0,1.1,0,1.5,0c0.1,0,0.2,0,0.3-0.1c0.1-0.1,0.1-0.2,0.1-0.4l0.1-0.4h0.4
		c0,0.7,0,1.1,0,1.3v1.3h-0.4v-0.4c0-0.3-0.1-0.6-0.2-0.6s-0.6-0.1-1.5-0.1C116.3,63.5,116,63.5,115.7,63.5z"/>
	<path class="st3" d="M120.1,64.6c0-0.5,0.1-1,0.4-1.4c0.2-0.4,0.6-0.7,1-1c0.4-0.2,0.9-0.4,1.5-0.4c0.8,0,1.4,0.2,1.9,0.7
		s0.7,1.1,0.7,1.9c0,0.9-0.3,1.7-0.9,2.2s-1.2,0.7-2,0.7c-0.7,0-1.4-0.3-1.8-0.8C120.3,66.2,120.1,65.5,120.1,64.6z M121.2,64.2
		c0,0.8,0.2,1.4,0.5,2c0.3,0.5,0.8,0.8,1.4,0.8c0.5,0,0.8-0.2,1.1-0.5c0.3-0.3,0.4-0.9,0.4-1.6c0-0.6-0.1-1.1-0.2-1.5
		c-0.2-0.4-0.4-0.7-0.7-0.9s-0.6-0.3-0.9-0.3s-0.6,0.1-0.8,0.2c-0.2,0.1-0.4,0.3-0.5,0.6C121.2,63.4,121.2,63.8,121.2,64.2z"/>
	<path class="st3" d="M126.4,64.6c0-0.5,0.1-1,0.4-1.4c0.2-0.4,0.6-0.7,1-1c0.4-0.2,0.9-0.4,1.5-0.4c0.8,0,1.4,0.2,1.9,0.7
		s0.7,1.1,0.7,1.9c0,0.9-0.3,1.7-0.9,2.2s-1.2,0.7-2,0.7c-0.7,0-1.4-0.3-1.8-0.8C126.6,66.2,126.4,65.5,126.4,64.6z M127.4,64.2
		c0,0.8,0.2,1.4,0.5,2c0.3,0.5,0.8,0.8,1.4,0.8c0.5,0,0.8-0.2,1.1-0.5c0.3-0.3,0.4-0.9,0.4-1.6c0-0.6-0.1-1.1-0.2-1.5
		c-0.2-0.4-0.4-0.7-0.7-0.9s-0.6-0.3-0.9-0.3s-0.6,0.1-0.8,0.2c-0.2,0.1-0.4,0.3-0.5,0.6C127.5,63.4,127.4,63.8,127.4,64.2z"/>
	<path class="st3" d="M137,62.2v-2c0-0.2,0-0.4-0.1-0.4c-0.1-0.1-0.2-0.1-0.4-0.1H136v-0.3c0.7,0,1.3-0.2,1.9-0.4l0.1,0.1
		c0,0.4,0,0.8-0.1,1.4V62v0.5v3.4c0,0.6,0,1,0.1,1c0.1,0.1,0.2,0.2,0.5,0.2l0.4,0.1v0.3c-0.5,0-0.9-0.1-1.2-0.1
		c-0.1,0-0.3,0-0.7,0.1c0-0.3,0-0.6,0.1-1.1c-0.3,0.2-0.7,0.6-1.2,1c-0.3,0.1-0.6,0.2-0.8,0.2c-0.6,0-1.2-0.2-1.6-0.7
		s-0.6-1.1-0.6-1.9c0-0.5,0.1-0.9,0.2-1.3c0.2-0.4,0.4-0.6,0.6-0.8c0.2-0.2,0.6-0.4,1.1-0.6c0.4-0.2,0.7-0.3,1-0.3
		c0.2,0,0.4,0,0.7,0.1C136.6,62,136.8,62.1,137,62.2z M137,63.2c-0.3-0.3-0.5-0.5-0.8-0.6s-0.6-0.2-0.9-0.2c-0.5,0-0.9,0.2-1.2,0.5
		c-0.3,0.4-0.4,0.9-0.4,1.6s0.2,1.3,0.5,1.7c0.3,0.4,0.8,0.6,1.2,0.6c0.3,0,0.6-0.1,0.8-0.3c0.3-0.2,0.4-0.4,0.5-0.6
		c0.1-0.3,0.2-0.7,0.2-1.3L137,63.2L137,63.2z"/>
	<path class="st3" d="M147.5,59.7c-0.1,0.4-0.2,0.9-0.2,1.5H147v-0.4c0-0.3,0-0.5-0.1-0.6s-0.3-0.2-0.6-0.3c-0.3-0.1-0.7-0.2-1-0.2
		c-0.6,0-1.1,0.2-1.4,0.5s-0.5,0.7-0.5,1.2c0,0.3,0.1,0.6,0.2,0.8c0.1,0.2,0.3,0.4,0.6,0.5c0.2,0.1,0.7,0.2,1.5,0.3
		c0.8,0.1,1.3,0.2,1.6,0.3c0.3,0.1,0.5,0.3,0.7,0.6c0.2,0.3,0.2,0.6,0.2,1c0,0.8-0.3,1.4-0.9,1.9s-1.5,0.8-2.5,0.8
		c-0.4,0-0.7,0-1.1-0.1s-0.7-0.2-1.1-0.3c0.1-0.4,0.1-1,0.1-1.7h0.4v0.3c0,0.4,0,0.6,0.1,0.7c0,0.1,0.1,0.2,0.3,0.3
		c0.2,0.1,0.5,0.3,0.7,0.3c0.3,0.1,0.6,0.1,0.9,0.1c0.7,0,1.3-0.2,1.6-0.5s0.6-0.8,0.6-1.3c0-0.3-0.1-0.6-0.2-0.8
		c-0.1-0.2-0.3-0.4-0.6-0.5c-0.2-0.1-0.7-0.2-1.3-0.2c-0.8-0.1-1.4-0.2-1.7-0.3c-0.3-0.1-0.5-0.3-0.7-0.6s-0.3-0.7-0.3-1.1
		c0-0.7,0.3-1.3,0.8-1.8s1.3-0.7,2.2-0.7c0.4,0,0.7,0,1.1,0.1C146.8,59.4,147.2,59.5,147.5,59.7z"/>
	<path class="st3" d="M148.6,64.6c0-0.5,0.1-1,0.4-1.4c0.2-0.4,0.6-0.7,1-1c0.4-0.2,0.9-0.4,1.5-0.4c0.8,0,1.4,0.2,1.9,0.7
		s0.7,1.1,0.7,1.9c0,0.9-0.3,1.7-0.9,2.2s-1.2,0.7-2,0.7c-0.7,0-1.4-0.3-1.8-0.8C148.8,66.2,148.6,65.5,148.6,64.6z M149.6,64.2
		c0,0.8,0.2,1.4,0.5,2c0.3,0.5,0.8,0.8,1.4,0.8c0.5,0,0.8-0.2,1.1-0.5c0.3-0.3,0.4-0.9,0.4-1.6c0-0.6-0.1-1.1-0.2-1.5
		c-0.2-0.4-0.4-0.7-0.7-0.9s-0.6-0.3-0.9-0.3s-0.6,0.1-0.8,0.2c-0.2,0.1-0.4,0.3-0.5,0.6C149.7,63.4,149.6,63.8,149.6,64.2z"/>
	<path class="st3" d="M156.7,59c-0.1,1.1-0.1,2.1-0.1,3v2.9c0,1.1,0,1.8,0.1,1.9c0,0.1,0.1,0.1,0.4,0.2l0.5,0.1v0.3
		c-0.4,0-0.8,0-1.2,0c-0.4,0-1,0-1.6,0v-0.3h0.5c0.2,0,0.3-0.1,0.4-0.2c0-0.1,0.1-0.8,0.1-2V62v-1.1v-0.7c0-0.2,0-0.3-0.1-0.3
		c-0.1-0.1-0.2-0.1-0.4-0.1h-0.5v-0.3C155.5,59.3,156.1,59.1,156.7,59L156.7,59z"/>
	<path class="st3" d="M162.5,67.3l0.1-1l-0.3,0.4c-0.3,0.3-0.5,0.5-0.8,0.6s-0.6,0.2-1,0.2c-0.3,0-0.6-0.1-0.9-0.2
		c-0.2-0.1-0.4-0.3-0.5-0.6s-0.2-0.6-0.2-1.1c0-0.3,0-0.5,0-0.9v-0.9c0-0.6,0-1-0.1-1.1c0-0.1-0.2-0.1-0.4-0.1H158v-0.3
		c0.5,0,1-0.1,1.4-0.3l0.5-0.2c0.1,0,0.1,0,0.1,0.1v0.6c-0.1,0.8-0.1,1.5-0.1,2.2s0,1.1,0.1,1.3c0.1,0.2,0.2,0.3,0.4,0.5
		c0.2,0.1,0.4,0.2,0.7,0.2c0.3,0,0.7-0.1,1-0.3c0.3-0.2,0.5-0.5,0.6-0.7c0-0.1,0.1-0.5,0.1-1.2c0-1.1,0-1.7-0.1-1.8
		c0-0.1-0.2-0.1-0.5-0.1h-0.4v-0.3c0.4,0,0.7-0.1,1-0.2s0.6-0.2,0.9-0.3h0.1c0.1,0,0.1,0,0.1,0.1v0.5c-0.1,1.3-0.1,2.4-0.1,3.4
		c0,0.5,0,0.9,0.1,0.9c0.1,0.1,0.3,0.2,0.5,0.2h0.3v0.3c-0.5,0-0.9,0-1.2,0C163,67.3,162.8,67.3,162.5,67.3z"/>
	<path class="st3" d="M166.8,62.9v2.2c0,0.6,0,0.9,0.1,1.1c0,0.2,0.1,0.3,0.2,0.4s0.3,0.1,0.4,0.1s0.2,0,0.3-0.1
		c0.1,0,0.2-0.1,0.3-0.2l0.2,0.2l-0.5,0.6c-0.1,0-0.2,0.1-0.3,0.1c-0.1,0-0.2,0-0.3,0c-0.3,0-0.5,0-0.7-0.1s-0.3-0.2-0.4-0.4
		c-0.1-0.2-0.1-0.4-0.1-0.7V65v-2.1c-0.3,0-0.6,0-0.9,0v-0.2c0.3-0.1,0.6-0.3,0.9-0.4c0-0.5,0-1.1,0-1.7c0.4-0.2,0.8-0.3,0.9-0.4
		l0.1,0.1c0,0.3-0.1,1-0.1,2.1c0.5,0,0.8,0,1.1,0h0.4l-0.1,0.6h-0.2H167h-0.2V62.9z"/>
	<path class="st3" d="M170.6,61.9l0.1,0.1c0,0.3,0,0.6,0,0.9c0,1.1,0,1.9,0,2.4s0,0.9,0.1,1.2c0,0.1,0.1,0.2,0.1,0.3
		c0.1,0.1,0.2,0.1,0.4,0.1l0.4,0.1v0.3c-0.5,0-1,0-1.5,0c-0.4,0-0.9,0-1.3,0V67l0.5-0.1c0.2,0,0.3,0,0.3-0.1s0.1-0.2,0.1-0.5
		c0-0.5,0-1.1,0-2c0-0.6,0-1,0-1.3c0-0.1,0-0.2-0.1-0.2s-0.2-0.1-0.4-0.1h-0.4v-0.3c0.5-0.1,0.8-0.1,1-0.2
		C170,62.1,170.3,62,170.6,61.9z M170.2,59.4c0.2,0,0.3,0.1,0.4,0.2s0.2,0.3,0.2,0.5s-0.1,0.3-0.2,0.4s-0.3,0.2-0.4,0.2
		c-0.2,0-0.3-0.1-0.4-0.2s-0.2-0.3-0.2-0.4s0.1-0.3,0.2-0.5C169.8,59.4,170,59.4,170.2,59.4z"/>
	<path class="st3" d="M172.2,64.6c0-0.5,0.1-1,0.4-1.4c0.2-0.4,0.6-0.7,1-1c0.4-0.2,0.9-0.4,1.5-0.4c0.8,0,1.4,0.2,1.9,0.7
		s0.7,1.1,0.7,1.9c0,0.9-0.3,1.7-0.9,2.2s-1.2,0.7-2,0.7c-0.7,0-1.4-0.3-1.8-0.8C172.5,66.2,172.2,65.5,172.2,64.6z M173.3,64.2
		c0,0.8,0.2,1.4,0.5,2c0.3,0.5,0.8,0.8,1.4,0.8c0.5,0,0.8-0.2,1.1-0.5c0.3-0.3,0.4-0.9,0.4-1.6c0-0.6-0.1-1.1-0.2-1.5
		c-0.2-0.4-0.4-0.7-0.7-0.9s-0.6-0.3-0.9-0.3s-0.6,0.1-0.8,0.2c-0.2,0.1-0.4,0.3-0.5,0.6C173.4,63.4,173.3,63.8,173.3,64.2z"/>
	<path class="st3" d="M180.1,63l0.8-0.8c0.1-0.1,0.2-0.2,0.3-0.2c0.2-0.1,0.5-0.1,0.7-0.1c0.4,0,0.7,0.1,1,0.2
		c0.3,0.2,0.5,0.4,0.6,0.6c0.1,0.3,0.2,0.7,0.2,1.2v1.8c0,0.6,0,1,0.1,1.1s0.2,0.2,0.4,0.2h0.4v0.3c-0.4,0-0.7,0-1,0s-0.6,0-0.9,0
		c0.1-0.7,0.1-1.7,0.1-3c0-0.5,0-0.9-0.1-1.1s-0.2-0.4-0.4-0.5s-0.5-0.2-0.8-0.2c-0.4,0-0.7,0.1-0.9,0.3s-0.4,0.4-0.5,0.6
		c0,0.1-0.1,0.5-0.1,1.1c0,0.7,0,1.3,0,1.9c0,0.2,0,0.3,0.1,0.3c0.1,0.1,0.2,0.1,0.5,0.1h0.4v0.3c-0.6,0-1.1,0-1.5,0s-0.8,0-1.4,0
		v-0.3h0.4c0.3,0,0.4-0.1,0.5-0.2s0.1-0.9,0.1-2.3c0-0.6,0-1.1,0-1.5c0-0.1,0-0.2-0.1-0.2s-0.2-0.1-0.4-0.1h-0.4v-0.3
		c0.3,0,0.6-0.1,0.9-0.2s0.5-0.2,0.9-0.3h0.1c0.1,0,0.1,0,0.1,0.1V62L180.1,63z"/>
	<path class="st3" d="M185.7,65.6V66c0,0.3,0,0.5,0.1,0.5c0.1,0.1,0.3,0.2,0.6,0.3c0.3,0.1,0.6,0.2,0.9,0.2c0.4,0,0.7-0.1,0.9-0.3
		c0.2-0.2,0.4-0.5,0.4-0.7s-0.1-0.4-0.2-0.6c-0.1-0.1-0.4-0.3-0.8-0.3c-0.7-0.2-1.2-0.3-1.5-0.4c-0.2-0.1-0.4-0.3-0.5-0.4
		c-0.1-0.2-0.2-0.4-0.2-0.7c0-0.5,0.2-0.9,0.5-1.2c0.4-0.3,0.9-0.5,1.5-0.5c0.5,0,1,0.1,1.6,0.3c0,0.3-0.1,0.7-0.1,1.3h-0.3
		c0-0.3,0-0.5-0.1-0.7c-0.1-0.1-0.2-0.3-0.5-0.4c-0.2-0.1-0.5-0.2-0.7-0.2c-0.3,0-0.6,0.1-0.8,0.3c-0.2,0.2-0.3,0.4-0.3,0.7
		c0,0.3,0.1,0.4,0.2,0.6c0.2,0.1,0.6,0.3,1.3,0.4c0.5,0.1,0.9,0.2,1.1,0.3c0.2,0.1,0.3,0.2,0.4,0.4c0.1,0.2,0.2,0.4,0.2,0.7
		c0,0.5-0.2,0.9-0.6,1.3s-1,0.5-1.7,0.5c-0.5,0-1-0.1-1.5-0.2c-0.1,0-0.2-0.1-0.2-0.1V67c0-0.1,0-0.2,0-0.3c0-0.4,0.1-0.6,0.1-0.9
		v-0.3h0.2V65.6z"/>
	<path class="st3" d="M191.9,65.7l0.2,0.2c-0.2,0.5-0.4,1-0.7,1.4c-0.2,0.4-0.6,0.9-1,1.4l-0.5,0.2l-0.2-0.2c0.3-0.5,0.6-1,0.7-1.4
		c0.2-0.4,0.3-0.8,0.3-1.3C191.2,66,191.6,65.9,191.9,65.7z"/>
	<path class="st3" d="M197.9,66.8c0.4,0,0.7,0,1.1,0c0.7,0,1.3,0,1.7-0.1c0.3,0,0.6-0.1,0.9-0.2l0.3-1.3h0.4c-0.1,0.7-0.2,1.4-0.2,2
		c-0.3,0.1-0.8,0.1-1.4,0.1H198c-0.4,0-0.9,0-1.7,0.1v-0.3c0.3-0.1,0.5-0.3,0.5-0.4c0.1-0.1,0.1-0.7,0.1-1.8v-3.1
		c0-1.1,0-1.7-0.1-1.9c-0.1-0.1-0.2-0.2-0.5-0.2h-0.6v-0.4c0.9,0,1.5,0,1.8,0c0.4,0,0.9,0,1.6,0v0.4h-0.7c-0.2,0-0.3,0.1-0.4,0.2
		s-0.1,0.6-0.1,1.4v3.6v1.6L197.9,66.8z"/>
	<path class="st3" d="M205,66.8c0.4,0,0.7,0,1.1,0c0.7,0,1.3,0,1.7-0.1c0.3,0,0.6-0.1,0.9-0.2l0.3-1.3h0.4c-0.1,0.7-0.2,1.4-0.2,2
		c-0.3,0.1-0.8,0.1-1.4,0.1h-2.7c-0.4,0-0.9,0-1.7,0.1v-0.3c0.3-0.1,0.5-0.3,0.5-0.4c0.1-0.1,0.1-0.7,0.1-1.8v-3.1
		c0-1.1,0-1.7-0.1-1.9c-0.1-0.1-0.2-0.2-0.5-0.2h-0.6v-0.4c0.9,0,1.5,0,1.8,0c0.4,0,0.9,0,1.6,0v0.4h-0.7c-0.2,0-0.3,0.1-0.4,0.2
		s-0.1,0.6-0.1,1.4v3.6v1.6L205,66.8z"/>
	<path class="st3" d="M216.7,61.3v-1c-0.3-0.2-0.7-0.4-1-0.5c-0.4-0.1-0.7-0.2-1.1-0.2c-1,0-1.8,0.3-2.4,0.9s-0.9,1.4-0.9,2.5
		c0,0.7,0.2,1.4,0.5,1.9c0.3,0.6,0.7,1,1.3,1.3c0.6,0.3,1.2,0.5,1.8,0.5c0.5,0,1-0.1,1.5-0.2c0.4-0.1,0.7-0.3,1.1-0.5l0.1,0.1
		c-0.1,0.2-0.2,0.3-0.2,0.5c-0.4,0.2-0.9,0.4-1.3,0.5s-0.9,0.2-1.3,0.2c-0.9,0-1.7-0.2-2.4-0.5s-1.2-0.8-1.6-1.5
		c-0.4-0.6-0.6-1.3-0.6-2.1s0.2-1.5,0.6-2.1s0.9-1.1,1.6-1.4s1.5-0.5,2.5-0.5c0.5,0,1.1,0.1,1.9,0.3c0.4,0.1,0.6,0.1,0.9,0.2
		c-0.2,0.4-0.3,1-0.3,1.7L216.7,61.3L216.7,61.3z"/>
</g>
<line class="st4" x1="95" y1="53.2" x2="237" y2="53.2"/>
</svg>
